<svg width="48" height="32" viewBox="0 0 48 32" fill="none" xmlns="http://www.w3.org/2000/svg">
<path d="M37.2993 25.4238C37.7877 25.4238 38.2603 25.3241 38.6909 25.1458C39.1372 24.9623 39.5363 24.6896 39.8724 24.354C40.2085 24.0183 40.4815 23.6145 40.6653 23.174C40.8439 22.7492 40.9384 22.2773 40.9384 21.7791C40.9384 21.3438 40.8649 20.9295 40.7283 20.5467C40.5866 20.1482 40.3818 19.7863 40.1192 19.4664C39.153 18.2812 38.066 18.1921 36.6797 18.0767C36.5904 18.0714 36.4959 18.0609 36.1335 18.0295L35.5769 17.9771L35.5401 17.4212C35.5296 17.2324 35.5139 16.9807 35.4981 16.7342C35.4194 15.3445 35.3406 14.0701 34.8522 12.7329C34.5949 12.0301 34.2536 11.3642 33.844 10.7506C33.4292 10.1265 32.9408 9.55488 32.3999 9.05669C31.5492 8.27006 30.5463 7.63553 29.4383 7.20551C28.3723 6.79122 27.2065 6.5657 25.983 6.5657C24.9327 6.5657 23.9297 6.73353 22.9898 7.04294C22.0183 7.36283 21.1203 7.83479 20.3222 8.42738C19.8023 8.81545 19.3192 9.26647 18.8781 9.75942C18.5788 10.1003 18.3057 10.4516 18.0641 10.824C18.1744 10.8974 18.2899 10.9761 18.4002 11.06C18.7048 11.2802 18.9831 11.5057 19.2352 11.726C20.0544 12.4444 20.7685 13.2783 21.3566 14.2065C21.7925 14.8935 22.1548 15.6277 22.4436 16.409H14.5931C14.215 16.1259 13.8002 15.8951 13.3538 15.7273C12.8077 15.5228 12.209 15.4074 11.5789 15.4074C10.8962 15.4074 10.2451 15.5438 9.65696 15.785C9.04782 16.0367 8.49644 16.4091 8.03434 16.8758C7.56698 17.3425 7.19415 17.8931 6.94209 18.4962C6.70054 19.0836 6.56401 19.7286 6.56401 20.4156C6.56401 21.1026 6.70054 21.7476 6.94209 22.335C7.19415 22.9433 7.56698 23.4939 8.03434 23.9554C8.49644 24.4169 9.04782 24.7893 9.66221 25.041C10.2556 25.2875 10.9015 25.4238 11.5789 25.4238H16.536C20.59 25.4238 22.1286 22.2563 22.1286 18.7165H28.7083C28.7083 22.2563 30.2469 25.4238 34.3009 25.4238H37.2941H37.2993ZM12.2406 31.9895H11.9833H11.5842H10.912V31.9685C9.58345 31.8899 8.3179 31.5909 7.14688 31.1085C5.72906 30.5211 4.45827 29.6611 3.39227 28.6018C2.32628 27.5372 1.46509 26.2629 0.87695 24.8417C0.30982 23.473 0 21.9836 0 20.4156C0 18.8476 0.315071 17.3582 0.87695 15.9895C1.46509 14.5683 2.32628 13.294 3.39227 12.2294C4.45827 11.1648 5.73432 10.3048 7.15739 9.71746C8.52271 9.15109 10.0193 8.84169 11.5894 8.84169H11.6682C12.1933 7.79285 12.8339 6.81218 13.5639 5.91018C14.3935 4.8928 15.344 3.98032 16.3995 3.19369C17.7648 2.17108 19.2929 1.36349 20.9418 0.818092C22.5329 0.288429 24.2343 0 25.9882 0C28.0362 0 30.0054 0.388052 31.8118 1.09602C33.6865 1.8302 35.3931 2.91052 36.853 4.25828C38.0922 5.40151 39.1425 6.72826 39.9669 8.19663C40.7231 9.53914 41.2902 11.0075 41.6316 12.5546C42.2722 12.8535 42.8761 13.2206 43.438 13.6401C44.0996 14.1383 44.693 14.7099 45.2129 15.3445C45.948 16.2412 46.5309 17.2638 46.93 18.3704C47.3134 19.4402 47.5234 20.5887 47.5234 21.7896C47.5234 23.1688 47.2503 24.4851 46.7462 25.6913C46.2264 26.9446 45.4702 28.0669 44.5302 29.0056C43.5902 29.9443 42.4665 30.6994 41.222 31.2186C40.2137 31.6382 39.1215 31.9004 37.982 31.9738V32H37.3098H36.9107H36.6534H12.2563L12.2406 31.9895Z" fill="white"/>
</svg>
