<svg width="80" height="80" viewBox="0 0 80 80" fill="none" xmlns="http://www.w3.org/2000/svg">
<g clip-path="url(#clip0_711_5851)">
<path d="M78.8122 47.0187L69.6869 27.4734L73.626 28.6033C74.4911 28.8515 75.3938 28.3518 75.6414 27.4861C75.8897 26.621 75.39 25.719 74.5249 25.4707L47.1357 17.6109C47.1414 17.4938 47.1446 17.3767 47.1446 17.2589C47.1452 14.0067 44.9497 11.1644 41.8025 10.3451C38.6553 9.52519 35.3521 10.9352 33.7664 13.7743L6.37464 5.91518C5.50954 5.66692 4.60688 6.16727 4.35862 7.03237C4.11099 7.89747 4.6107 8.7995 5.4758 9.04776L10.8816 10.5991L1.09172 31.5678C0.4386 31.7963 0.00063743 32.4125 8.57363e-07 33.1051C-0.00190887 38.3957 3.18668 43.1649 8.0762 45.1847C12.9657 47.2052 18.5911 46.0772 22.324 42.3284C24.8111 39.9037 26.216 36.5789 26.2223 33.1051C26.2223 32.3756 25.7366 31.7352 25.0345 31.5372L15.936 12.0498L32.865 16.9069C32.8593 17.024 32.8561 17.1411 32.8561 17.2595C32.8612 20.5755 35.1433 23.4534 38.3707 24.2135V56.4934H33.8727C30.2786 56.4934 27.2892 59.3778 27.2892 62.9725V63.9184C24.2649 64.555 22.0935 67.2146 22.0744 70.3058V72.5873C22.1018 73.5071 22.8485 74.243 23.769 74.2564H56.2317C57.1521 74.243 57.8988 73.5071 57.9262 72.5873V70.3058C57.9071 67.2146 55.7358 64.555 52.7114 63.9184V62.9725C52.7114 59.3778 49.7214 56.4934 46.128 56.4934H41.63V24.2135C43.583 23.752 45.2527 22.4928 46.2343 20.7429L64.6796 26.036L54.8694 47.0493C54.2156 47.2778 53.7777 47.894 53.777 48.5859C53.7758 53.8765 56.9644 58.6457 61.8539 60.6655C66.7434 62.686 72.3681 61.5587 76.101 57.8099C78.5881 55.3845 79.9937 52.0597 80 48.5859C79.9994 47.8564 79.5143 47.2167 78.8122 47.0187ZM13.0701 13.5369L21.4086 31.3972H4.73228L13.0701 13.5369ZM13.0701 42.837C8.27036 42.8651 4.1651 39.3945 3.39484 34.6565H22.8199C21.9904 39.3906 17.8769 42.8428 13.0701 42.837ZM54.667 70.3058V70.9971H25.3337V70.3058C25.3337 68.5088 26.8615 67.086 28.6579 67.086H51.3428C53.1392 67.086 54.667 68.5088 54.667 70.3058ZM49.4522 62.9725V63.8268H30.5485V62.9725C30.5485 61.1754 32.0763 59.7527 33.8727 59.7527H46.128C47.9244 59.7527 49.4522 61.1754 49.4522 62.9725ZM40.0003 21.1439C38.3433 21.1452 36.8678 20.0961 36.3248 18.5308C35.7818 16.9655 36.2904 15.2282 37.5915 14.2027C38.8933 13.1772 40.7018 13.0894 42.0966 13.9844C43.4913 14.8788 44.1654 16.5587 43.7765 18.1692C43.7351 18.2723 43.7045 18.3786 43.6848 18.4875C43.1545 20.0726 41.6713 21.142 40.0003 21.1439ZM75.1863 46.8787H58.51L66.8478 29.0183L75.1863 46.8787ZM66.8478 58.3185C62.048 58.3465 57.9428 54.8759 57.1725 50.1379H76.5975C75.7681 54.8721 71.6546 58.3242 66.8478 58.3185Z" fill="url(#paint0_linear_711_5851)"/>
</g>
<defs>
<linearGradient id="paint0_linear_711_5851" x1="40" y1="5.85156" x2="40" y2="74.2564" gradientUnits="userSpaceOnUse">
<stop offset="0.05" stop-color="#0E42E4"/>
<stop offset="0.96" stop-color="#66E6C1"/>
</linearGradient>
<clipPath id="clip0_711_5851">
<rect width="80" height="80" fill="white"/>
</clipPath>
</defs>
</svg>
