<svg width="100" height="100" viewBox="0 0 100 100" fill="none" xmlns="http://www.w3.org/2000/svg">
<path d="M76.6333 51.9324L76.6578 51.9239C76.6935 51.9116 76.7077 51.9009 76.7097 51.8993C76.7114 51.898 76.7119 51.8974 76.7117 51.8976L76.7117 51.8976C76.7124 51.8967 76.7219 51.8805 76.7219 51.8489C76.7219 51.8174 76.7124 51.8012 76.7117 51.8002C76.7115 51.8 76.7116 51.8001 76.7117 51.8003C76.7119 51.8004 76.7114 51.7999 76.7097 51.7986C76.7077 51.797 76.6935 51.7862 76.6578 51.7739L76.6333 51.7655L76.6091 51.7564C76.5925 51.7502 76.5719 51.743 76.522 51.7258C76.4843 51.7129 76.4227 51.6918 76.3559 51.6672C65.0423 47.6963 55.6807 39.5911 50.0789 29.1647L50.0788 29.1645C48.8663 26.9069 47.8269 24.5417 46.9786 22.0866L46.9759 22.0788L46.9759 22.0788C46.9712 22.065 46.9671 22.0563 46.9645 22.0515C46.9572 22.0484 46.9405 22.0429 46.9145 22.0429C46.8884 22.0429 46.8717 22.0484 46.8644 22.0515C46.8618 22.0563 46.8577 22.065 46.853 22.0788L46.8504 22.0866L46.8504 22.0866C46.0021 24.5417 44.9626 26.9069 43.7502 29.1645L43.75 29.1647C38.1482 39.5911 28.7867 47.6962 17.4731 51.6671C17.4097 51.6905 17.3511 51.7106 17.3131 51.7237L17.3069 51.7258C17.257 51.743 17.2364 51.7502 17.2198 51.7564L17.1956 51.7655L17.1711 51.7739C17.1354 51.7862 17.1213 51.797 17.1192 51.7986C17.1181 51.7994 17.1175 51.8 17.1172 51.8002M76.6333 51.9324L17.1172 51.8003C17.1171 51.8003 17.1171 51.8003 17.1172 51.8002M76.6333 51.9324L76.609 51.9415M76.6333 51.9324L76.609 51.9415M17.1172 51.8002C17.1166 51.8012 17.107 51.8174 17.107 51.8489M17.1172 51.8002L17.107 51.8489M76.609 51.9415C76.5924 51.9477 76.5719 51.9549 76.522 51.972L76.5157 51.9742C76.4777 51.9873 76.4193 52.0073 76.3562 52.0306C65.0424 56.0015 55.6808 64.1067 50.0789 74.5331L50.0788 74.5334M76.609 51.9415L50.0788 74.5334M50.0788 74.5334C48.8663 76.7909 47.8269 79.1562 46.9785 81.6113L46.9759 81.619M50.0788 74.5334L46.9759 81.619M46.9759 81.619C46.9712 81.6328 46.9671 81.6415 46.9645 81.6464C46.9572 81.6494 46.9405 81.6549 46.9145 81.6549C46.8884 81.6549 46.8717 81.6494 46.8644 81.6464C46.8642 81.646 46.8639 81.6455 46.8637 81.645C46.8611 81.6399 46.8573 81.6316 46.853 81.619L46.8504 81.6113M46.9759 81.619L46.8504 81.6113M46.8504 81.6113C46.0021 79.1562 44.9626 76.7909 43.7502 74.5334L43.75 74.5331M46.8504 81.6113L43.75 74.5331M43.75 74.5331C38.1481 64.1067 28.7866 56.0016 17.4729 52.0307C17.4096 52.0073 17.3511 51.9872 17.3131 51.9741L17.3069 51.972C17.257 51.9549 17.2365 51.9477 17.2199 51.9415L17.1956 51.9324M43.75 74.5331L17.1956 51.9324M17.1956 51.9324L17.1711 51.9239M17.1956 51.9324L17.1711 51.9239M17.1711 51.9239C17.1354 51.9116 17.1213 51.9009 17.1192 51.8993M17.1711 51.9239L17.1192 51.8993M17.1192 51.8993C17.1175 51.898 17.117 51.8974 17.1172 51.8976M17.1192 51.8993L17.1172 51.8976M17.1172 51.8976L17.1172 51.8976M17.1172 51.8976L17.1172 51.8976M17.1172 51.8976C17.1166 51.8967 17.107 51.8805 17.107 51.8489M17.1172 51.8976L17.107 51.8489M73.7212 20.3578C75.3593 23.3804 77.8506 25.8731 80.8747 27.5129C77.8506 29.1526 75.3593 31.6453 73.7212 34.668C72.0831 31.6453 69.5919 29.1526 66.5678 27.5129C69.5919 25.8731 72.0831 23.3804 73.7212 20.3578Z" stroke="url(#paint0_linear_726_3429)" stroke-width="3.88007"/>
<defs>
<linearGradient id="paint0_linear_726_3429" x1="20.4583" y1="16.5781" x2="49.9115" y2="83.595" gradientUnits="userSpaceOnUse">
<stop stop-color="#29CE9E"/>
<stop offset="1" stop-color="#0E42E4"/>
</linearGradient>
</defs>
</svg>
