<svg width="100" height="100" viewBox="0 0 100 100" fill="none" xmlns="http://www.w3.org/2000/svg">
<path d="M76.6578 51.9239L76.6333 51.9324L76.6091 51.9415C76.6048 51.9431 76.6003 51.9447 76.595 51.9466C76.5799 51.952 76.5591 51.9593 76.522 51.972L76.516 51.9741C76.478 51.9872 76.4194 52.0073 76.3561 52.0307C65.0424 56.0015 55.6808 64.1067 50.0789 74.5332L50.0788 74.5334C48.8663 76.7909 47.8269 79.1562 46.9785 81.6113L46.9759 81.619C46.9712 81.6328 46.9671 81.6415 46.9645 81.6464C46.9572 81.6494 46.9405 81.6549 46.9145 81.6549C46.8884 81.6549 46.8717 81.6494 46.8644 81.6464C46.8618 81.6415 46.8577 81.6328 46.853 81.619L46.8504 81.6113C46.0021 79.1562 44.9626 76.7909 43.7502 74.5334L43.75 74.5332C38.1481 64.1067 28.7866 56.0015 17.4729 52.0307C17.4096 52.0073 17.351 51.9872 17.313 51.9741L17.3069 51.972C17.257 51.9549 17.2365 51.9477 17.2199 51.9415L17.1956 51.9324L17.1711 51.9239C17.1354 51.9116 17.1213 51.9009 17.1192 51.8993C17.1175 51.898 17.117 51.8974 17.1172 51.8976C17.1173 51.8977 17.1174 51.8978 17.1172 51.8976C17.1166 51.8967 17.107 51.8805 17.107 51.8489C17.107 51.8174 17.1166 51.8012 17.1172 51.8002C17.1174 51.8 17.1173 51.8001 17.1172 51.8003C17.117 51.8004 17.1175 51.7999 17.1192 51.7986C17.1213 51.797 17.1354 51.7863 17.1711 51.7739L17.1956 51.7655L17.2199 51.7564C17.2365 51.7502 17.257 51.743 17.3069 51.7258L17.313 51.7237C17.3511 51.7107 17.4097 51.6905 17.4731 51.6671C28.7867 47.6962 38.1482 39.5911 43.75 29.1647L43.7502 29.1645C44.9626 26.9069 46.0021 24.5417 46.8504 22.0866L46.8504 22.0866L46.853 22.0788C46.8577 22.065 46.8618 22.0563 46.8644 22.0515C46.8717 22.0484 46.8884 22.0429 46.9145 22.0429C46.9405 22.0429 46.9572 22.0484 46.9645 22.0515C46.9671 22.0563 46.9712 22.065 46.9759 22.0788L46.9759 22.0788L46.9786 22.0866C47.8269 24.5417 48.8663 26.9069 50.0788 29.1645L50.0789 29.1647C55.6807 39.5911 65.0422 47.6962 76.3559 51.6671C76.4192 51.6905 76.4779 51.7107 76.516 51.7238L76.522 51.7258C76.5719 51.743 76.5925 51.7502 76.6091 51.7564L76.6333 51.7655L76.6578 51.7739C76.6935 51.7863 76.7077 51.797 76.7097 51.7986C76.7114 51.7999 76.7119 51.8004 76.7117 51.8003C76.7116 51.8001 76.7115 51.8 76.7117 51.8002C76.7124 51.8012 76.7219 51.8174 76.7219 51.8489C76.7219 51.8805 76.7124 51.8967 76.7117 51.8976C76.7115 51.8978 76.7116 51.8977 76.7117 51.8976C76.7119 51.8974 76.7114 51.898 76.7097 51.8993C76.7077 51.9009 76.6935 51.9116 76.6578 51.9239ZM73.7212 20.3578C75.3593 23.3804 77.8506 25.8731 80.8747 27.5129C77.8506 29.1526 75.3593 31.6453 73.7212 34.668C72.0831 31.6453 69.5919 29.1526 66.5678 27.5129C69.5919 25.8731 72.0831 23.3804 73.7212 20.3578Z" stroke="url(#paint0_linear_969_3198)" stroke-width="3.88007"/>
<defs>
<linearGradient id="paint0_linear_969_3198" x1="20.4583" y1="16.5781" x2="49.9115" y2="83.595" gradientUnits="userSpaceOnUse">
<stop stop-color="#29CE9E"/>
<stop offset="1" stop-color="#0E42E4"/>
</linearGradient>
</defs>
</svg>
