<svg width="70" height="68" viewBox="0 0 70 68" fill="none" xmlns="http://www.w3.org/2000/svg">
<path d="M61.6333 35.9324L61.6578 35.9239C61.6935 35.9116 61.7077 35.9009 61.7097 35.8993C61.7114 35.898 61.7119 35.8974 61.7117 35.8976L61.7117 35.8976C61.7124 35.8967 61.7219 35.8805 61.7219 35.8489C61.7219 35.8174 61.7124 35.8012 61.7117 35.8002C61.7115 35.8 61.7116 35.8001 61.7117 35.8003C61.7119 35.8004 61.7114 35.7999 61.7097 35.7986C61.7077 35.797 61.6935 35.7862 61.6578 35.7739L61.6333 35.7655L61.6091 35.7564C61.5925 35.7502 61.5719 35.743 61.522 35.7258C61.4843 35.7129 61.4227 35.6918 61.3559 35.6672C50.0423 31.6963 40.6807 23.5911 35.0789 13.1647L35.0788 13.1645C33.8663 10.9069 32.8269 8.54166 31.9786 6.08659L31.9759 6.07882L31.9759 6.07881C31.9712 6.06505 31.9671 6.05633 31.9645 6.05147C31.9572 6.04845 31.9405 6.04293 31.9145 6.04293C31.8884 6.04293 31.8717 6.04845 31.8644 6.05147C31.8618 6.05633 31.8577 6.06504 31.853 6.07881L31.8504 6.08659L31.8504 6.08659C31.0021 8.54166 29.9626 10.9069 28.7502 13.1645L28.75 13.1647C23.1482 23.5911 13.7867 31.6962 2.47308 35.6671C2.40974 35.6905 2.35112 35.7106 2.31306 35.7237L2.30692 35.7258C2.25701 35.743 2.23645 35.7502 2.21985 35.7564L2.19559 35.7655L2.1711 35.7739C2.13541 35.7862 2.12125 35.797 2.1192 35.7986C2.11808 35.7994 2.11747 35.8 2.11724 35.8002M61.6333 35.9324L2.11718 35.8003C2.11712 35.8003 2.11712 35.8003 2.11724 35.8002M61.6333 35.9324L61.609 35.9415M61.6333 35.9324L61.609 35.9415M2.11724 35.8002C2.11657 35.8012 2.10703 35.8174 2.10703 35.8489M2.11724 35.8002L2.10703 35.8489M61.609 35.9415C61.5924 35.9477 61.5719 35.9549 61.522 35.972L61.5157 35.9742C61.4777 35.9873 61.4193 36.0073 61.3562 36.0306C50.0424 40.0015 40.6808 48.1067 35.0789 58.5331L35.0788 58.5334M61.609 35.9415L35.0788 58.5334M35.0788 58.5334C33.8663 60.7909 32.8269 63.1562 31.9785 65.6113L31.9759 65.619M35.0788 58.5334L31.9759 65.619M31.9759 65.619C31.9712 65.6328 31.9671 65.6415 31.9645 65.6464C31.9572 65.6494 31.9405 65.6549 31.9145 65.6549C31.8884 65.6549 31.8717 65.6494 31.8644 65.6464C31.8642 65.646 31.8639 65.6455 31.8637 65.645C31.8611 65.6399 31.8573 65.6316 31.853 65.619L31.8504 65.6113M31.9759 65.619L31.8504 65.6113M31.8504 65.6113C31.0021 63.1562 29.9626 60.7909 28.7502 58.5334L28.75 58.5331M31.8504 65.6113L28.75 58.5331M28.75 58.5331C23.1481 48.1067 13.7866 40.0016 2.47288 36.0307C2.40963 36.0073 2.35108 35.9872 2.31307 35.9741L2.30694 35.972C2.25704 35.9549 2.23649 35.9477 2.21991 35.9415L2.19562 35.9324M28.75 58.5331L2.19562 35.9324M2.19562 35.9324L2.1711 35.9239M2.19562 35.9324L2.1711 35.9239M2.1711 35.9239C2.13541 35.9116 2.12125 35.9009 2.1192 35.8993M2.1711 35.9239L2.1192 35.8993M2.1192 35.8993C2.11749 35.898 2.11701 35.8974 2.11718 35.8976M2.1192 35.8993L2.11718 35.8976M2.11718 35.8976L2.11724 35.8976M2.11718 35.8976L2.11724 35.8976M2.11724 35.8976C2.11657 35.8967 2.10703 35.8805 2.10703 35.8489M2.11724 35.8976L2.10703 35.8489M58.7212 4.35776C60.3593 7.38044 62.8506 9.87312 65.8747 11.5129C62.8506 13.1526 60.3593 15.6453 58.7212 18.668C57.0831 15.6453 54.5919 13.1526 51.5678 11.5129C54.5919 9.87312 57.0831 7.38044 58.7212 4.35776Z" stroke="url(#paint0_linear_726_3430)" stroke-width="3.88007"/>
<defs>
<linearGradient id="paint0_linear_726_3430" x1="5.45834" y1="0.578126" x2="34.9115" y2="67.595" gradientUnits="userSpaceOnUse">
<stop stop-color="#29CE9E"/>
<stop offset="1" stop-color="#0E42E4"/>
</linearGradient>
</defs>
</svg>
