<svg width="80" height="80" viewBox="0 0 80 80" fill="none" xmlns="http://www.w3.org/2000/svg">
<g clip-path="url(#clip0_711_5806)">
<path d="M76.8325 17.6518L40.5094 0.116484C40.1874 -0.0388281 39.8124 -0.0388281 39.4905 0.116484L3.16723 17.6518C2.76223 17.8473 2.50488 18.2574 2.50488 18.7071V61.2929C2.50488 61.7426 2.76223 62.1527 3.16723 62.3482L39.4903 79.8835C39.6513 79.9612 39.8257 80.0001 39.9999 80.0001C40.1741 80.0001 40.3483 79.9612 40.5094 79.8835L76.8325 62.3482C77.2375 62.1527 77.4949 61.7426 77.4949 61.2929V18.7073C77.4949 18.2573 77.2374 17.8474 76.8325 17.6518ZM39.9999 2.4732L73.6275 18.7071L63.8796 23.413C63.8178 23.366 63.7527 23.3226 63.6811 23.288L30.2819 7.16461L39.9999 2.4732ZM27.6353 8.48961L61.2141 24.6999L54.3368 28.0201L20.7719 11.8163L27.6353 8.48961ZM61.9997 26.923V39.1959L55.5758 42.2971V30.0243L61.9997 26.923ZM75.1511 60.5576L41.1718 76.961V36.9779L49.2769 33.0651C49.8597 32.7837 50.1041 32.0832 49.8227 31.5002C49.5413 30.9176 48.8408 30.6729 48.2578 30.9545L39.9999 34.9412L36.7505 33.3724C36.1675 33.0907 35.4671 33.3354 35.1857 33.9182C34.9043 34.501 35.1486 35.2016 35.7314 35.483L38.828 36.9779V76.961L4.84863 60.5573V20.5741L30.7236 33.0655C30.8878 33.1449 31.0614 33.1824 31.2322 33.1824C31.6678 33.1824 32.0863 32.9384 32.2883 32.5198C32.5697 31.937 32.3253 31.2363 31.7425 30.9549L6.37223 18.7071L18.0136 13.0871L53.2158 30.0813C53.221 30.0885 53.2267 30.0949 53.2321 30.102V44.1643C53.2321 44.5676 53.4394 44.9424 53.781 45.157C53.9707 45.276 54.1871 45.3362 54.4041 45.3362C54.5778 45.3362 54.7521 45.2976 54.9135 45.2196L63.6811 40.987C64.0861 40.7915 64.3435 40.3815 64.3435 39.9316V25.7918L75.1511 20.5743V60.5576Z" fill="url(#paint0_linear_711_5806)"/>
<path d="M14.5197 56.0125L9.18925 53.4392C8.60612 53.1575 7.90581 53.4022 7.6244 53.985C7.343 54.5678 7.58737 55.2685 8.17018 55.5499L13.5007 58.1231C13.6649 58.2025 13.8385 58.24 14.0092 58.24C14.4449 58.24 14.8633 57.996 15.0653 57.5774C15.3469 56.9944 15.1025 56.2941 14.5197 56.0125Z" fill="url(#paint1_linear_711_5806)"/>
<path d="M19.4254 52.8186L9.19647 47.8805C8.6135 47.5991 7.91303 47.8435 7.63163 48.4264C7.35038 49.0093 7.59475 49.7099 8.17757 49.9913L18.4065 54.9294C18.5707 55.0086 18.7443 55.0463 18.9151 55.0463C19.3507 55.0463 19.7691 54.8022 19.9712 54.3836C20.2526 53.8005 20.0082 53.0999 19.4254 52.8186Z" fill="url(#paint2_linear_711_5806)"/>
</g>
<defs>
<linearGradient id="paint0_linear_711_5806" x1="39.9999" y1="0" x2="39.9999" y2="80.0001" gradientUnits="userSpaceOnUse">
<stop offset="0.05" stop-color="#0E42E4"/>
<stop offset="0.96" stop-color="#66E6C1"/>
</linearGradient>
<linearGradient id="paint1_linear_711_5806" x1="11.3449" y1="53.3223" x2="11.3449" y2="58.24" gradientUnits="userSpaceOnUse">
<stop offset="0.05" stop-color="#0E42E4"/>
<stop offset="0.96" stop-color="#66E6C1"/>
</linearGradient>
<linearGradient id="paint2_linear_711_5806" x1="13.8014" y1="47.7637" x2="13.8014" y2="55.0463" gradientUnits="userSpaceOnUse">
<stop offset="0.05" stop-color="#0E42E4"/>
<stop offset="0.96" stop-color="#66E6C1"/>
</linearGradient>
<clipPath id="clip0_711_5806">
<rect width="80" height="80" fill="white"/>
</clipPath>
</defs>
</svg>
