<svg width="182" height="60" viewBox="0 0 182 60" fill="none" xmlns="http://www.w3.org/2000/svg">
<rect width="182" height="60" rx="8" fill="white"/>
<path d="M29.548 37V24.436H34.948C36.112 24.436 37.012 24.778 37.648 25.462C38.284 26.146 38.602 27.064 38.602 28.216C38.602 29.368 38.284 30.286 37.648 30.97C37.012 31.654 36.112 31.996 34.948 31.996H31.582V37H29.548ZM31.582 30.214H34.822C35.338 30.214 35.74 30.082 36.028 29.818C36.316 29.542 36.46 29.152 36.46 28.648V27.784C36.46 27.28 36.316 26.896 36.028 26.632C35.74 26.356 35.338 26.218 34.822 26.218H31.582V30.214ZM47.3362 37C46.8202 37 46.4242 36.856 46.1482 36.568C45.8722 36.268 45.7042 35.89 45.6442 35.434H45.5542C45.3742 36.022 45.0442 36.466 44.5642 36.766C44.0842 37.066 43.5022 37.216 42.8182 37.216C41.8462 37.216 41.0962 36.964 40.5682 36.46C40.0522 35.956 39.7942 35.278 39.7942 34.426C39.7942 33.49 40.1302 32.788 40.8022 32.32C41.4862 31.852 42.4822 31.618 43.7902 31.618H45.4822V30.826C45.4822 30.25 45.3262 29.806 45.0142 29.494C44.7022 29.182 44.2162 29.026 43.5562 29.026C43.0042 29.026 42.5542 29.146 42.2062 29.386C41.8582 29.626 41.5642 29.932 41.3242 30.304L40.1542 29.242C40.4662 28.714 40.9042 28.282 41.4682 27.946C42.0322 27.598 42.7702 27.424 43.6822 27.424C44.8942 27.424 45.8242 27.706 46.4722 28.27C47.1202 28.834 47.4442 29.644 47.4442 30.7V35.398H48.4342V37H47.3362ZM43.3762 35.722C43.9882 35.722 44.4922 35.59 44.8882 35.326C45.2842 35.05 45.4822 34.684 45.4822 34.228V32.878H43.8262C42.4702 32.878 41.7922 33.298 41.7922 34.138V34.462C41.7922 34.882 41.9302 35.2 42.2062 35.416C42.4942 35.62 42.8842 35.722 43.3762 35.722ZM50.3571 37V27.64H52.3191V29.44H52.4091C52.5411 28.96 52.8171 28.54 53.2371 28.18C53.6571 27.82 54.2391 27.64 54.9831 27.64H55.5051V29.53H54.7311C53.9511 29.53 53.3511 29.656 52.9311 29.908C52.5231 30.16 52.3191 30.532 52.3191 31.024V37H50.3571ZM59.9101 37C59.2261 37 58.7101 36.826 58.3621 36.478C58.0141 36.118 57.8401 35.614 57.8401 34.966V29.242H56.3821V27.64H57.1741C57.4981 27.64 57.7201 27.568 57.8401 27.424C57.9721 27.28 58.0381 27.046 58.0381 26.722V25.084H59.8021V27.64H61.7641V29.242H59.8021V35.398H61.6201V37H59.9101ZM63.8923 37V27.64H65.8543V29.188H65.9443C66.1483 28.684 66.4543 28.264 66.8623 27.928C67.2823 27.592 67.8523 27.424 68.5723 27.424C69.5323 27.424 70.2763 27.742 70.8043 28.378C71.3443 29.002 71.6143 29.896 71.6143 31.06V37H69.6523V31.312C69.6523 29.848 69.0643 29.116 67.8883 29.116C67.6363 29.116 67.3843 29.152 67.1323 29.224C66.8923 29.284 66.6763 29.38 66.4843 29.512C66.2923 29.644 66.1363 29.812 66.0163 30.016C65.9083 30.22 65.8543 30.46 65.8543 30.736V37H63.8923ZM78.0057 37.216C77.3337 37.216 76.7337 37.102 76.2057 36.874C75.6777 36.646 75.2277 36.322 74.8557 35.902C74.4837 35.47 74.1957 34.954 73.9917 34.354C73.7997 33.742 73.7037 33.064 73.7037 32.32C73.7037 31.576 73.7997 30.904 73.9917 30.304C74.1957 29.692 74.4837 29.176 74.8557 28.756C75.2277 28.324 75.6777 27.994 76.2057 27.766C76.7337 27.538 77.3337 27.424 78.0057 27.424C78.6897 27.424 79.2897 27.544 79.8057 27.784C80.3337 28.024 80.7717 28.36 81.1197 28.792C81.4677 29.212 81.7257 29.704 81.8937 30.268C82.0737 30.832 82.1637 31.438 82.1637 32.086V32.824H75.7377V33.13C75.7377 33.85 75.9477 34.444 76.3677 34.912C76.7997 35.368 77.4117 35.596 78.2037 35.596C78.7797 35.596 79.2657 35.47 79.6617 35.218C80.0577 34.966 80.3937 34.624 80.6697 34.192L81.8217 35.326C81.4737 35.902 80.9697 36.364 80.3097 36.712C79.6497 37.048 78.8817 37.216 78.0057 37.216ZM78.0057 28.954C77.6697 28.954 77.3577 29.014 77.0697 29.134C76.7937 29.254 76.5537 29.422 76.3497 29.638C76.1577 29.854 76.0077 30.112 75.8997 30.412C75.7917 30.712 75.7377 31.042 75.7377 31.402V31.528H80.0937V31.348C80.0937 30.628 79.9077 30.052 79.5357 29.62C79.1637 29.176 78.6537 28.954 78.0057 28.954ZM84.3356 37V27.64H86.2976V29.44H86.3876C86.5196 28.96 86.7956 28.54 87.2156 28.18C87.6356 27.82 88.2176 27.64 88.9616 27.64H89.4836V29.53H88.7096C87.9296 29.53 87.3296 29.656 86.9096 29.908C86.5016 30.16 86.2976 30.532 86.2976 31.024V37H84.3356ZM94.5442 27.64H96.4522L97.4062 31.564L98.2522 35.11H98.3062L99.2782 31.564L100.412 27.64H102.176L103.328 31.564L104.318 35.11H104.372L105.2 31.564L106.172 27.64H107.99L105.47 37H103.256L102.032 32.734L101.276 30.106H101.24L100.502 32.734L99.2602 37H97.1002L94.5442 27.64ZM110.849 25.966C110.441 25.966 110.141 25.87 109.949 25.678C109.769 25.486 109.679 25.24 109.679 24.94V24.634C109.679 24.334 109.769 24.088 109.949 23.896C110.141 23.704 110.441 23.608 110.849 23.608C111.257 23.608 111.551 23.704 111.731 23.896C111.911 24.088 112.001 24.334 112.001 24.634V24.94C112.001 25.24 111.911 25.486 111.731 25.678C111.551 25.87 111.257 25.966 110.849 25.966ZM109.859 27.64H111.821V37H109.859V27.64ZM117.215 37C116.531 37 116.015 36.826 115.667 36.478C115.319 36.118 115.145 35.614 115.145 34.966V29.242H113.687V27.64H114.479C114.803 27.64 115.025 27.568 115.145 27.424C115.277 27.28 115.343 27.046 115.343 26.722V25.084H117.107V27.64H119.069V29.242H117.107V35.398H118.925V37H117.215ZM121.197 23.68H123.159V29.188H123.249C123.453 28.684 123.759 28.264 124.167 27.928C124.587 27.592 125.157 27.424 125.877 27.424C126.837 27.424 127.581 27.742 128.109 28.378C128.649 29.002 128.919 29.896 128.919 31.06V37H126.957V31.294C126.957 29.842 126.369 29.116 125.193 29.116C124.941 29.116 124.689 29.152 124.437 29.224C124.197 29.284 123.981 29.38 123.789 29.512C123.597 29.644 123.441 29.812 123.321 30.016C123.213 30.22 123.159 30.454 123.159 30.718V37H121.197V23.68ZM141.562 35.452H141.49C141.406 35.68 141.292 35.902 141.148 36.118C141.016 36.334 140.842 36.526 140.626 36.694C140.422 36.85 140.17 36.976 139.87 37.072C139.582 37.168 139.246 37.216 138.862 37.216C137.89 37.216 137.134 36.904 136.594 36.28C136.066 35.656 135.802 34.762 135.802 33.598V27.64H137.764V33.346C137.764 34.798 138.364 35.524 139.564 35.524C139.816 35.524 140.062 35.494 140.302 35.434C140.542 35.362 140.752 35.26 140.932 35.128C141.124 34.996 141.274 34.828 141.382 34.624C141.502 34.42 141.562 34.18 141.562 33.904V27.64H143.524V37H141.562V35.452ZM149.304 37.216C148.416 37.216 147.672 37.06 147.072 36.748C146.472 36.436 145.95 36.004 145.506 35.452L146.766 34.3C147.114 34.72 147.498 35.05 147.918 35.29C148.35 35.518 148.848 35.632 149.412 35.632C149.988 35.632 150.414 35.524 150.69 35.308C150.978 35.08 151.122 34.768 151.122 34.372C151.122 34.072 151.02 33.82 150.816 33.616C150.624 33.4 150.282 33.262 149.79 33.202L148.926 33.094C147.966 32.974 147.21 32.698 146.658 32.266C146.118 31.822 145.848 31.168 145.848 30.304C145.848 29.848 145.932 29.446 146.1 29.098C146.268 28.738 146.502 28.438 146.802 28.198C147.114 27.946 147.48 27.754 147.9 27.622C148.332 27.49 148.806 27.424 149.322 27.424C150.162 27.424 150.846 27.556 151.374 27.82C151.914 28.084 152.394 28.45 152.814 28.918L151.608 30.07C151.368 29.782 151.05 29.536 150.654 29.332C150.27 29.116 149.826 29.008 149.322 29.008C148.782 29.008 148.38 29.116 148.116 29.332C147.864 29.548 147.738 29.83 147.738 30.178C147.738 30.538 147.852 30.808 148.08 30.988C148.308 31.168 148.674 31.3 149.178 31.384L150.042 31.492C151.074 31.648 151.824 31.954 152.292 32.41C152.772 32.854 153.012 33.454 153.012 34.21C153.012 34.666 152.922 35.08 152.742 35.452C152.574 35.812 152.328 36.124 152.004 36.388C151.68 36.652 151.29 36.856 150.834 37C150.378 37.144 149.868 37.216 149.304 37.216Z" fill="#141414"/>
</svg>
