<svg width="775" height="775" viewBox="0 0 775 775" fill="none" xmlns="http://www.w3.org/2000/svg">
<circle opacity="0.4" cx="387.5" cy="387.5" r="387.112" stroke="#E6E7E7" stroke-opacity="0.05" stroke-width="0.775"/>
<circle opacity="0.4" cx="387.5" cy="387.5" r="309.612" stroke="#E6E7E7" stroke-opacity="0.05" stroke-width="0.775"/>
<circle opacity="0.4" cx="387.5" cy="387.5" r="154.613" stroke="#E6E7E7" stroke-opacity="0.05" stroke-width="0.775"/>
<circle opacity="0.4" cx="387.5" cy="387.5" r="232.113" stroke="#E6E7E7" stroke-opacity="0.05" stroke-width="0.775"/>
<path d="M53.7628 202.284C50.9559 200.727 49.9395 197.186 51.5392 194.403C75.9137 151.994 108.107 114.569 146.43 84.1166C186.271 52.4589 231.957 28.9583 280.88 14.9568C329.803 0.955261 381.005 -3.27305 431.562 2.51328C482.119 8.29961 531.042 23.9872 575.536 48.6805C620.031 73.3738 659.226 106.589 690.883 146.43C722.541 186.271 746.042 231.957 760.043 280.88C774.045 329.803 778.273 381.005 772.487 431.562C766.921 480.194 752.193 527.312 729.102 570.433C727.586 573.263 724.044 574.273 721.237 572.716C718.43 571.158 717.422 567.622 718.936 564.791C741.288 523.006 755.545 477.355 760.937 430.24C766.55 381.2 762.448 331.534 748.867 284.079C735.285 236.623 712.49 192.308 681.782 153.662C651.074 115.016 613.055 82.7976 569.895 58.8451C526.736 34.8926 479.281 19.6756 430.24 14.0629C381.2 8.45014 331.534 12.5516 284.079 26.1331C236.623 39.7146 192.308 62.5101 153.662 93.2181C116.534 122.72 85.3378 158.971 61.705 200.044C60.104 202.827 56.5697 203.842 53.7628 202.284Z" fill="#85EBCD"/>
<path d="M120.51 239.327C118.265 238.081 117.452 235.249 118.731 233.022C140.606 194.964 170.324 161.968 205.932 136.237C242.797 109.597 285.073 91.3963 329.76 82.9247C374.447 74.4531 420.451 75.9187 464.509 87.2173C507.064 98.1308 546.796 117.96 581.082 145.372C583.088 146.976 583.368 149.909 581.734 151.891C580.101 153.872 577.172 154.151 575.166 152.549C541.933 126.004 503.432 106.8 462.198 96.2258C419.463 85.2661 374.839 83.8445 331.492 92.062C288.146 100.279 247.138 117.934 211.379 143.775C176.877 168.707 148.076 200.67 126.864 237.536C125.583 239.761 122.756 240.574 120.51 239.327Z" fill="#D9D9D9"/>
<path d="M254.005 313.414C252.882 312.791 252.476 311.374 253.116 310.261C269.673 281.453 295.063 258.709 325.558 245.415C356.054 232.12 389.998 228.998 422.372 236.474C423.624 236.763 424.385 238.025 424.077 239.271C423.77 240.518 422.51 241.277 421.258 240.989C389.875 233.758 356.976 236.791 327.417 249.677C297.857 262.564 273.243 284.603 257.182 312.517C256.542 313.63 255.128 314.037 254.005 313.414Z" fill="#D9D9D9"/>
<path d="M187.258 276.371C185.574 275.436 184.964 273.311 185.924 271.641C208.234 232.825 241.293 201.251 281.149 180.749C322.041 159.715 368.251 151.279 413.937 156.508C459.623 161.737 502.733 180.396 537.814 210.125C572.008 239.102 597.078 277.328 610.041 320.182C610.599 322.026 609.525 323.958 607.673 324.488C605.821 325.018 603.893 323.945 603.335 322.101C590.752 280.574 566.446 243.531 533.305 215.446C499.276 186.609 457.459 168.51 413.144 163.438C368.829 158.366 324.005 166.549 284.34 186.952C245.71 206.823 213.663 237.416 192.023 275.026C191.063 276.696 188.942 277.305 187.258 276.371Z" fill="#85EBCD"/>
</svg>
