<svg width="222" height="32" viewBox="0 0 222 32" fill="none" xmlns="http://www.w3.org/2000/svg">
<path d="M37.2993 25.4238C37.7877 25.4238 38.2603 25.3241 38.6909 25.1458C39.1372 24.9623 39.5363 24.6896 39.8724 24.354C40.2085 24.0183 40.4815 23.6145 40.6653 23.174C40.8439 22.7492 40.9384 22.2773 40.9384 21.7791C40.9384 21.3438 40.8649 20.9295 40.7283 20.5467C40.5866 20.1482 40.3818 19.7863 40.1192 19.4664C39.153 18.2812 38.066 18.1921 36.6797 18.0767C36.5904 18.0714 36.4959 18.0609 36.1335 18.0295L35.5769 17.9771L35.5401 17.4212C35.5296 17.2324 35.5139 16.9807 35.4981 16.7342C35.4194 15.3445 35.3406 14.0701 34.8522 12.7329C34.5949 12.0301 34.2536 11.3642 33.844 10.7506C33.4292 10.1265 32.9408 9.55488 32.3999 9.05669C31.5492 8.27006 30.5463 7.63553 29.4383 7.20551C28.3723 6.79122 27.2065 6.5657 25.983 6.5657C24.9327 6.5657 23.9297 6.73353 22.9898 7.04294C22.0183 7.36283 21.1203 7.83479 20.3222 8.42738C19.8023 8.81545 19.3192 9.26647 18.8781 9.75942C18.5788 10.1003 18.3057 10.4516 18.0641 10.824C18.1744 10.8974 18.2899 10.9761 18.4002 11.06C18.7048 11.2802 18.9831 11.5057 19.2352 11.726C20.0544 12.4444 20.7685 13.2783 21.3566 14.2065C21.7925 14.8935 22.1548 15.6277 22.4436 16.409H14.5931C14.215 16.1259 13.8002 15.8951 13.3538 15.7273C12.8077 15.5228 12.209 15.4074 11.5789 15.4074C10.8962 15.4074 10.2451 15.5438 9.65696 15.785C9.04782 16.0367 8.49644 16.4091 8.03434 16.8758C7.56698 17.3425 7.19415 17.8931 6.94209 18.4962C6.70054 19.0836 6.56401 19.7286 6.56401 20.4156C6.56401 21.1026 6.70054 21.7476 6.94209 22.335C7.19415 22.9433 7.56698 23.4939 8.03434 23.9554C8.49644 24.4169 9.04782 24.7893 9.66221 25.041C10.2556 25.2875 10.9015 25.4238 11.5789 25.4238H16.536C20.59 25.4238 22.1286 22.2563 22.1286 18.7165H28.7083C28.7083 22.2563 30.2469 25.4238 34.3009 25.4238H37.2941H37.2993ZM12.2406 31.9895H11.9833H11.5842H10.912V31.9685C9.58345 31.8899 8.3179 31.5909 7.14688 31.1085C5.72906 30.5211 4.45827 29.6611 3.39227 28.6018C2.32628 27.5372 1.46509 26.2629 0.87695 24.8417C0.30982 23.473 0 21.9836 0 20.4156C0 18.8476 0.315071 17.3582 0.87695 15.9895C1.46509 14.5683 2.32628 13.294 3.39227 12.2294C4.45827 11.1648 5.73432 10.3048 7.15739 9.71746C8.52271 9.15109 10.0193 8.84169 11.5894 8.84169H11.6682C12.1933 7.79285 12.8339 6.81218 13.5639 5.91018C14.3935 4.8928 15.344 3.98032 16.3995 3.19369C17.7648 2.17108 19.2929 1.36349 20.9418 0.818092C22.5329 0.288429 24.2343 0 25.9882 0C28.0362 0 30.0054 0.388052 31.8118 1.09602C33.6865 1.8302 35.3931 2.91052 36.853 4.25828C38.0922 5.40151 39.1425 6.72826 39.9669 8.19663C40.7231 9.53914 41.2902 11.0075 41.6316 12.5546C42.2722 12.8535 42.8761 13.2206 43.438 13.6401C44.0996 14.1383 44.693 14.7099 45.2129 15.3445C45.948 16.2412 46.5309 17.2638 46.93 18.3704C47.3134 19.4402 47.5234 20.5887 47.5234 21.7896C47.5234 23.1688 47.2503 24.4851 46.7462 25.6913C46.2264 26.9446 45.4702 28.0669 44.5302 29.0056C43.5902 29.9443 42.4665 30.6994 41.222 31.2186C40.2137 31.6382 39.1215 31.9004 37.982 31.9738V32H37.3098H36.9107H36.6534H12.2563L12.2406 31.9895Z" fill="white"/>
<g clip-path="url(#clip0_711_2857)">
<path d="M53.7373 16.2381C53.7373 10.1503 57.519 6.10547 63.1814 6.10547C67.7585 6.10547 71.1694 8.81115 71.83 13.02H68.2573C67.5967 10.7448 65.6688 9.39875 63.1005 9.39875C59.5278 9.39875 57.283 12.0224 57.283 16.204C57.283 20.3855 59.5548 23.0365 63.1005 23.0365C65.716 23.0365 67.7315 21.6426 68.3652 19.4699H71.884C71.1425 23.5968 67.5967 26.3298 63.0263 26.3298C57.3842 26.3434 53.7373 22.3737 53.7373 16.2381Z" fill="white"/>
<path d="M76.1375 6.07812H72.9355V26.0223H76.1375V6.07812Z" fill="white"/>
<path d="M84.3079 12.4043C88.3524 12.4043 91.2915 15.2466 91.2915 19.3735C91.2915 23.5003 88.3592 26.3427 84.3079 26.3427C80.2565 26.3427 77.3242 23.5003 77.3242 19.3735C77.3242 15.2466 80.2565 12.4043 84.3079 12.4043ZM84.3079 23.4183C86.5324 23.4183 88.0626 21.7854 88.0626 19.3735C88.0626 16.9616 86.5256 15.3286 84.3079 15.3286C82.0901 15.3286 80.5531 16.9616 80.5531 19.3735C80.5531 21.7854 82.0901 23.4183 84.3079 23.4183Z" fill="white"/>
<path d="M104.194 12.7812V26.0227H101.207L100.972 24.2531C100.176 25.5103 98.4841 26.3712 96.7382 26.3712C93.725 26.3712 91.9521 24.3077 91.9521 21.0623V12.7812H95.1811V19.9144C95.1811 22.4356 96.1585 23.4537 97.9583 23.4537C99.9941 23.4537 100.972 22.2443 100.972 19.7299V12.7881H104.2L104.194 12.7812Z" fill="white"/>
<path d="M105.069 19.4562C105.069 15.3294 107.449 12.3777 111.392 12.3777C113.219 12.3777 114.83 13.1566 115.653 14.4685V6.07812H118.855V26.0223H115.895L115.686 23.9589C114.891 25.4893 113.199 26.3707 111.217 26.3707C107.435 26.3707 105.083 23.5557 105.083 19.4562H105.069ZM115.619 19.3469C115.619 16.9623 114.163 15.302 111.918 15.302C109.673 15.302 108.298 16.9897 108.298 19.3469C108.298 21.7041 109.673 23.3644 111.918 23.3644C114.163 23.3644 115.619 21.7315 115.619 19.3469Z" fill="white"/>
<path d="M123.311 6.83008H121.41V26.0227H123.311V6.83008Z" fill="white"/>
<path d="M126.055 26.0227V13.0477H127.639L127.902 15.3024C128.751 13.6421 130.443 12.6992 132.29 12.6992C135.809 12.6992 137.265 14.8173 137.265 18.0901V26.0227H135.438V18.4932C135.438 15.4664 134.09 14.3937 131.973 14.3937C129.358 14.3937 127.875 16.3205 127.875 19.2448V26.0295H126.048L126.055 26.0227Z" fill="white"/>
<path d="M140.588 26.0218V14.6046H138.026V13.0468H140.588V8.94727H142.388V13.0468H144.949V14.6046H142.388V26.0218H140.588Z" fill="white"/>
<path d="M144.835 19.5317C144.835 15.4869 147.322 12.6992 150.969 12.6992C154.616 12.6992 156.787 15.1931 156.787 18.8622V19.7709H146.608C146.743 22.9344 148.381 24.7586 151.131 24.7586C153.221 24.7586 154.569 23.8499 155.048 22.1349H156.793C156.106 24.868 154.124 26.3438 151.111 26.3438C147.356 26.3438 144.842 23.6108 144.842 19.5386L144.835 19.5317ZM146.662 18.4385H154.967C154.967 15.9447 153.382 14.2844 150.976 14.2844C148.569 14.2844 146.985 15.89 146.669 18.4385H146.662Z" fill="white"/>
<path d="M163.366 12.6992C165.59 12.6992 167.282 13.7446 168.098 15.6509L168.28 13.0477H169.864V25.6195C169.864 29.4799 167.43 32.0011 163.676 32.0011C160.4 32.0011 158.094 30.1222 157.595 26.986H159.422C159.82 29.0768 161.404 30.3067 163.709 30.3067C166.325 30.3067 168.071 28.5097 168.071 25.804V22.7225C167.201 24.5468 165.428 25.6195 163.231 25.6195C159.584 25.6195 157.359 22.6952 157.359 19.1628C157.359 15.6304 159.604 12.7061 163.366 12.7061V12.6992ZM163.494 23.9592C166.271 23.9592 167.909 21.9231 167.909 19.1355C167.909 16.3478 166.325 14.339 163.521 14.339C160.716 14.339 159.186 16.5118 159.186 19.1355C159.186 21.7592 160.797 23.9592 163.494 23.9592Z" fill="white"/>
<path d="M178.904 14.5509H177.899C175.547 14.5509 174.037 16.1565 174.037 18.6231V26.0227H172.21V13.0477H173.929L174.064 15.0565C174.569 13.6626 175.917 12.7539 177.711 12.7539C178.108 12.7539 178.452 12.7812 178.904 12.8906V14.5509Z" fill="white"/>
<path d="M178.681 22.5107C178.681 20.1262 180.48 18.623 183.467 18.3839L187.7 18.0354V17.605C187.7 15.0564 186.19 14.257 184.316 14.257C182.092 14.257 180.77 15.2751 180.77 17.0174H179.105C179.105 14.3937 181.222 12.6992 184.37 12.6992C187.329 12.6992 189.5 14.2024 189.5 17.6323V26.0227H187.963L187.727 23.7474C186.932 25.3804 185.186 26.3506 183.022 26.3506C180.298 26.3506 178.687 24.7928 178.687 22.5176L178.681 22.5107ZM187.7 20.1262V19.4293L183.918 19.7231C181.512 19.9349 180.534 21.0076 180.534 22.4561C180.534 24.0344 181.701 24.8406 183.447 24.8406C186.143 24.8406 187.707 22.9344 187.707 20.1262H187.7Z" fill="white"/>
<path d="M192.581 26.0218V14.6046H190.013V13.0468H192.581V8.94727H194.381V13.0468H196.942V14.6046H194.381V26.0218H192.581Z" fill="white"/>
<path d="M196.828 19.5317C196.828 15.4869 199.316 12.6992 202.962 12.6992C206.609 12.6992 208.78 15.1931 208.78 18.8622V19.7709H198.601C198.736 22.9344 200.374 24.7586 203.124 24.7586C205.214 24.7586 206.562 23.8499 207.041 22.1349H208.787C208.099 24.868 206.117 26.3438 203.104 26.3438C199.349 26.3438 196.835 23.6108 196.835 19.5386L196.828 19.5317ZM198.655 18.4385H206.96C206.96 15.9447 205.376 14.2844 202.969 14.2844C200.563 14.2844 198.978 15.89 198.662 18.4385H198.655Z" fill="white"/>
<path d="M209.325 19.5579C209.325 15.6429 211.523 12.6981 215.331 12.6981C217.448 12.6981 219.14 13.6341 220.037 15.5131V6.48047H221.863V26.0215H220.279L220.097 23.3705C219.201 25.3792 217.401 26.3426 215.257 26.3426C211.529 26.3426 209.332 23.4456 209.332 19.5579H209.325ZM220.01 19.5033C220.01 16.5311 218.372 14.3584 215.567 14.3584C212.763 14.3584 211.179 16.5311 211.179 19.5033C211.179 22.4754 212.79 24.6482 215.567 24.6482C218.345 24.6482 220.01 22.5028 220.01 19.5033Z" fill="white"/>
</g>
<defs>
<clipPath id="clip0_711_2857">
<rect width="168.12" height="25.9226" fill="white" transform="translate(53.7373 6.07812)"/>
</clipPath>
</defs>
</svg>
