<svg width="76" height="56" viewBox="0 0 76 56" fill="none" xmlns="http://www.w3.org/2000/svg">
<path d="M53.9216 27.8915C53.9216 42.0043 42.4809 53.4451 28.368 53.4451C14.2552 53.4451 2.81445 42.0043 2.81445 27.8915C2.81445 13.7786 14.2552 2.33789 28.368 2.33789C42.4809 2.33789 53.9216 13.7786 53.9216 27.8915Z" stroke="url(#paint0_linear_711_19995)" stroke-width="3.88007"/>
<path d="M73.3612 27.8915C73.3612 38.5411 64.728 47.1743 54.0784 47.1743C43.4288 47.1743 34.7956 38.5411 34.7956 27.8915C34.7956 17.2419 43.4288 8.60871 54.0784 8.60871C64.728 8.60871 73.3612 17.2419 73.3612 27.8915Z" stroke="url(#paint1_linear_711_19995)" stroke-width="3.88007"/>
<defs>
<linearGradient id="paint0_linear_711_19995" x1="19.5889" y1="-1.4246" x2="61.6034" y2="53.4451" gradientUnits="userSpaceOnUse">
<stop stop-color="#0E42E4"/>
<stop offset="1" stop-color="#29CE9E"/>
</linearGradient>
<linearGradient id="paint1_linear_711_19995" x1="19.5889" y1="-1.4246" x2="61.6034" y2="53.4451" gradientUnits="userSpaceOnUse">
<stop stop-color="#0E42E4"/>
<stop offset="1" stop-color="#29CE9E"/>
</linearGradient>
</defs>
</svg>
