<svg width="80" height="80" viewBox="0 0 80 80" fill="none" xmlns="http://www.w3.org/2000/svg">
<path d="M77.091 55.0317H74.4243V28.7286L76.2425 30.5468C76.7273 31.0317 77.4546 31.0317 77.9395 30.5468C78.4243 30.062 78.4243 29.3347 77.9395 28.8498L74.0607 24.9711C73.5758 24.4862 72.8486 24.4862 72.3637 24.9711L68.4849 28.8498C68.0001 29.3347 68.0001 30.062 68.4849 30.5468C68.9698 31.0317 69.697 31.0317 70.1819 30.5468L72.0001 28.7286V55.0317H60.6061C59.8789 55.0317 59.394 55.5165 59.394 56.2438V62.1832H45.091C44.3637 62.1832 43.8789 62.668 43.8789 63.3953V69.3347H28.3637C27.6364 69.3347 27.1516 69.8195 27.1516 70.5468V76.365H3.39401C2.66673 76.365 2.18188 76.8498 2.18188 77.5771C2.18188 78.3044 2.66673 78.7892 3.39401 78.7892H28.3637C29.091 78.7892 29.5758 78.3044 29.5758 77.5771V71.6377H45.091C45.8183 71.6377 46.3031 71.1529 46.3031 70.4256V64.4862H60.6061C61.3334 64.4862 61.8183 64.0014 61.8183 63.2741V57.3347H76.9698C77.697 57.3347 78.1819 56.8498 78.1819 56.1226C78.3031 55.5165 77.697 55.0317 77.091 55.0317Z" fill="url(#paint0_linear_711_5840)"/>
<path d="M44.8484 14.3038C48.4848 14.3038 51.3939 11.3947 51.3939 7.75834C51.3939 4.12198 48.4848 1.21289 44.8484 1.21289C41.2121 1.21289 38.303 4.12198 38.303 7.75834C38.303 11.3947 41.2121 14.3038 44.8484 14.3038ZM44.8484 3.63713C47.1515 3.63713 48.9696 5.45531 48.9696 7.75834C48.9696 10.0614 47.1515 11.8796 44.8484 11.8796C42.5454 11.8796 40.7272 10.0614 40.7272 7.75834C40.7272 5.45531 42.5454 3.63713 44.8484 3.63713Z" fill="url(#paint1_linear_711_5840)"/>
<path d="M12.3637 49.5775C13.3333 50.5471 14.7879 50.6684 15.7576 49.6987L22.7879 43.2744C23.7576 42.4259 23.8788 40.8502 22.9091 39.8805L18.7879 35.3956L20.1212 34.1835C21.8182 35.1532 23.8788 34.6684 25.0909 33.4562L32.6061 25.9411L34.1818 25.4562L31.6364 36.9714C31.5152 37.5774 31.394 42.5471 31.394 46.7896L25.3333 58.3047C24.2424 60.3653 25.0909 62.9108 27.0303 64.0017C29.0909 65.0926 31.6364 64.3653 32.7273 62.3047L39.2727 49.9411C39.394 49.6987 39.5152 49.335 40.1212 46.6684C40.3637 45.5774 40.7273 44.0017 40.9697 42.7896L46.1818 46.9108L47.2727 56.1229C47.5152 58.4259 49.5758 60.0017 51.8788 59.7593C54.1818 59.5168 55.7576 57.335 55.5152 55.1532L54.1818 44.2441C54.0606 43.1532 53.4546 42.1835 52.6061 41.4562C47.0303 37.2138 44.6061 35.3956 43.2727 34.6684L44.6061 28.8502L46.4243 30.9108C47.2727 31.8805 48.6061 32.3653 49.8182 32.2441L60.4849 31.3956C61.5758 31.2744 62.6667 30.7896 63.394 29.9411C64.1212 29.0926 64.4849 28.0017 64.3636 26.9108C64.2424 24.6078 62.1818 22.9108 59.8788 23.032L51.2727 23.6381L44.8485 16.6078C43.1515 14.6684 40.8485 14.9108 38.4243 15.5168L29.2121 18.1835C28.4849 18.4259 27.8788 18.7896 27.394 19.2744L19.0303 27.6381C17.697 28.9714 17.4546 30.9108 18.303 32.4865L16.9697 33.6987L12.8485 29.2138C12 28.3653 10.4243 28.1229 9.45456 29.0926L2.42426 35.5168C1.45456 36.3653 1.33335 37.9411 2.30305 38.9108L12.3637 49.5775ZM20.8485 29.335L29.2121 21.0926C29.4546 20.8502 29.697 20.729 29.9394 20.6078L39.0303 17.9411C40.3637 17.5774 41.9394 17.2138 42.9091 18.3047L49.697 25.8199C49.9394 26.0623 50.303 26.3047 50.6667 26.1835L59.8788 25.4562H60C60.9697 25.4562 61.697 26.1835 61.697 27.032C61.697 27.5168 61.5758 28.0017 61.3333 28.3653C60.9697 28.729 60.6061 28.9714 60.1212 28.9714L49.4546 29.8199H49.3333C48.8485 29.8199 48.3636 29.5775 48 29.2138L44.7273 25.4562C44.1212 24.729 42.9091 25.0926 42.6667 26.0623L40.6061 35.032C40.3637 36.2441 40.1212 35.1532 51.0303 43.3956C51.394 43.6381 51.6364 44.1229 51.6364 44.6078C52.7273 54.3047 53.9394 57.2138 51.394 57.5774C50.4243 57.6987 49.5758 56.9714 49.4546 56.0017L48.2424 46.3047C48.2424 45.9411 48 45.6987 47.7576 45.4562L40.8485 40.0017C40.3637 39.6381 39.5152 39.6381 39.1515 40.2441C38.7879 40.729 38.5455 41.4562 37.5758 46.3047C37.3334 47.3956 37.0909 48.729 36.9697 49.0926L30.4243 61.4562C29.9394 62.3047 28.9697 62.6684 28 62.1835C27.1515 61.6987 26.7879 60.6077 27.2727 59.7593L33.4546 48.0017C33.5758 47.8805 33.5758 47.6381 33.5758 47.3956C33.5758 43.1532 33.697 38.3047 33.8182 37.8199L36.8485 24.2441C36.9697 23.5168 36.4849 22.7896 35.6364 22.7896C35.5152 22.7896 35.394 22.7896 35.2727 22.7896L31.394 23.8805C31.1515 23.8805 31.0303 24.0017 30.9091 24.2441L23.1515 32.0017C21.697 33.4562 19.1515 30.9108 20.8485 29.335ZM19.2727 39.6381L13.697 38.1835L12.8485 32.6078L19.2727 39.6381ZM10.1818 31.6381L11.394 39.2744C11.5152 39.7593 11.8788 40.1229 12.2424 40.2441L20.1212 42.1835L14.0606 47.8805L4.12123 37.2138L10.1818 31.6381Z" fill="url(#paint2_linear_711_5840)"/>
<defs>
<linearGradient id="paint0_linear_711_5840" x1="40.2425" y1="24.6074" x2="40.2425" y2="78.7892" gradientUnits="userSpaceOnUse">
<stop offset="0.05" stop-color="#0E42E4"/>
<stop offset="0.96" stop-color="#66E6C1"/>
</linearGradient>
<linearGradient id="paint1_linear_711_5840" x1="44.8484" y1="1.21289" x2="44.8484" y2="14.3038" gradientUnits="userSpaceOnUse">
<stop offset="0.05" stop-color="#0E42E4"/>
<stop offset="0.96" stop-color="#66E6C1"/>
</linearGradient>
<linearGradient id="paint2_linear_711_5840" x1="33.0101" y1="15.0801" x2="33.0101" y2="64.5065" gradientUnits="userSpaceOnUse">
<stop offset="0.05" stop-color="#0E42E4"/>
<stop offset="0.96" stop-color="#66E6C1"/>
</linearGradient>
</defs>
</svg>
