<svg width="68" height="66" viewBox="0 0 68 66" fill="none" xmlns="http://www.w3.org/2000/svg">
<path d="M44.2052 63.7558C51.2731 61.318 57.2464 56.4509 61.0615 50.0211C64.8767 43.5914 66.2861 36.0163 65.0388 28.6446C63.7914 21.273 59.9684 14.5832 54.2503 9.76651C48.5322 4.94981 41.2902 2.3188 33.8138 2.34195C26.3374 2.36509 19.1118 5.04089 13.4237 9.8929C7.7355 14.7449 3.95394 21.4582 2.75229 28.8374C1.55065 36.2167 3.00691 43.7829 6.86181 50.1889C10.7167 56.5949 16.72 61.425 23.8028 63.8189M21.264 38.7987L31.2408 28.8219C32.6184 27.4444 34.8517 27.4444 36.2293 28.8219L46.2061 38.7987M21.264 49.3807L31.2408 39.4039C32.6184 38.0264 34.8517 38.0264 36.2293 39.4039L46.2061 49.3807M33.7351 61.9538V38.6734" stroke="url(#paint0_linear_711_20002)" stroke-width="3.88007" stroke-linecap="round"/>
<defs>
<linearGradient id="paint0_linear_711_20002" x1="2.3418" y1="59.661" x2="45.0226" y2="2.34179" gradientUnits="userSpaceOnUse">
<stop stop-color="#0E42E4"/>
<stop offset="1" stop-color="#29CE9E"/>
</linearGradient>
</defs>
</svg>
