<svg width="100" height="100" viewBox="0 0 100 100" fill="none" xmlns="http://www.w3.org/2000/svg">
<path d="M60.2052 79.7558C67.2731 77.318 73.2464 72.4509 77.0615 66.0211C80.8767 59.5914 82.2861 52.0163 81.0388 44.6446C79.7914 37.273 75.9684 30.5832 70.2503 25.7665C64.5322 20.9498 57.2902 18.3188 49.8138 18.3419C42.3374 18.3651 35.1118 21.0409 29.4237 25.8929C23.7355 30.7449 19.9539 37.4582 18.7523 44.8374C17.5506 52.2167 19.0069 59.7829 22.8618 66.1889C26.7167 72.5949 32.72 77.425 39.8028 79.8189M37.264 54.7987L47.2408 44.8219C48.6184 43.4444 50.8517 43.4444 52.2293 44.8219L62.2061 54.7987M37.264 65.3807L47.2408 55.4039C48.6184 54.0264 50.8517 54.0264 52.2293 55.4039L62.2061 65.3807M49.7351 77.9538V54.6734" stroke="url(#paint0_linear_969_3202)" stroke-width="3.88007" stroke-linecap="round"/>
<defs>
<linearGradient id="paint0_linear_969_3202" x1="18.3418" y1="75.661" x2="61.0226" y2="18.3418" gradientUnits="userSpaceOnUse">
<stop stop-color="#0E42E4"/>
<stop offset="1" stop-color="#29CE9E"/>
</linearGradient>
</defs>
</svg>
