<svg width="80" height="80" viewBox="0 0 80 80" fill="none" xmlns="http://www.w3.org/2000/svg">
<g clip-path="url(#clip0_711_5826)">
<path d="M7.41964 51.7669C5.00263 53.5357 4.4643 56.9391 6.22335 59.3683C7.24569 60.7807 8.89854 61.6236 10.6442 61.6236C11.7983 61.6236 12.9031 61.2653 13.84 60.5866C13.8528 60.5774 13.8656 60.5683 13.8784 60.5585L26.6202 50.725C27.1909 50.3076 27.6682 49.7912 28.0399 49.19L36.0484 37.321L38.8469 39.2925C38.9488 39.431 38.9659 39.5775 38.9659 39.6599C38.9659 39.7557 38.9427 39.9413 38.7859 40.0981L30.6736 48.2098C29.6433 49.24 29.0757 50.6097 29.0757 52.0672C29.0757 53.5241 29.6433 54.8938 30.6736 55.9241C31.7033 56.9543 33.0735 57.5214 34.5305 57.5214C35.9874 57.5214 37.357 56.9543 38.3873 55.9241L46.903 47.4084C49.0771 45.2343 50.2746 42.3387 50.2746 39.2564C50.2746 36.4586 49.2852 33.8169 47.4767 31.7265L56.2952 22.9081C56.7267 22.4765 57.1088 22.0035 57.4402 21.4975C57.4933 21.4975 57.547 21.5006 57.6001 21.5006C60.0916 21.5006 62.5788 21.0489 64.9146 20.1517C68.1635 18.9041 71.0639 16.8222 73.304 14.1323L77.8066 8.72398C78.6434 7.71811 79.0389 6.44674 78.9198 5.14363C78.8008 3.84052 78.1813 2.66192 77.1761 1.82512C75.1002 0.0965903 72.0051 0.379795 70.2772 2.45562L66.9227 6.48519C66.8671 4.80183 66.2 3.13555 64.9183 1.85381C62.2388 -0.826269 57.8784 -0.826269 55.1983 1.85381L54.0826 2.96954C52.785 4.26777 52.0697 5.99385 52.0697 7.8292C52.0697 7.93235 52.0727 8.03489 52.0776 8.13682C51.4727 7.99643 50.8569 7.92136 50.2392 7.91037C50.1867 7.90488 50.1336 7.90244 50.0793 7.90244H42.6171C37.2423 7.90244 31.8302 9.11033 26.9657 11.3955C20.4703 14.4467 13.2473 16.058 6.06954 16.058C6.02925 16.0586 5.98836 16.0611 5.94808 16.058C5.49763 16.058 5.06855 16.2527 4.77192 16.5921C4.47406 16.9321 4.33857 17.3843 4.3996 17.8323L4.93732 21.7655C6.14766 30.6193 11.6067 38.1889 19.5871 42.1385L19.3155 42.5579L7.41964 51.7669ZM25.4307 47.4706C25.4166 47.4908 25.4032 47.5115 25.3904 47.5323C25.2286 47.7984 25.0187 48.026 24.7666 48.2092C24.7538 48.2183 24.7409 48.2281 24.7281 48.2372L11.99 58.0676C11.5933 58.3496 11.1288 58.4985 10.6442 58.4985C9.89769 58.4985 9.1909 58.1384 8.75449 57.5348C8.00131 56.4947 8.23447 55.0354 9.27513 54.2822C9.28856 54.2724 9.30198 54.2627 9.3148 54.2523L21.4395 44.8656C21.5787 44.7582 21.6983 44.6276 21.7941 44.4793L29.8899 31.9761C30.4392 33.0162 31.2284 33.9256 32.216 34.6208L33.4935 35.5211L25.4307 47.4706ZM44.6929 45.1983L36.1778 53.714C35.7377 54.1534 35.1524 54.3957 34.5305 54.3957C33.9085 54.3957 33.3232 54.1534 32.8831 53.714C32.4436 53.2739 32.2013 52.6886 32.2013 52.0666C32.2013 51.4447 32.4436 50.8593 32.8831 50.4199L40.9953 42.3076C41.7021 41.6008 42.0909 40.6603 42.0909 39.6593C42.0909 38.6583 41.7021 37.7177 40.9953 37.0116C40.9319 36.9481 40.8635 36.8907 40.7903 36.8388L34.0153 32.0658C32.946 31.3127 32.2685 30.1334 32.1562 28.8303C32.0445 27.5272 32.5102 26.2498 33.4355 25.3251L35.0639 23.696L44.1802 32.8123C44.2162 32.8483 44.254 32.8819 44.2931 32.9136L44.6929 33.314C46.2768 34.8979 47.1496 37.0085 47.1496 39.2558C47.1496 41.5038 46.2774 43.6138 44.6929 45.1983ZM45.291 29.492L38.3873 22.5882C38.3513 22.5522 38.3134 22.5186 38.2744 22.4863L37.2734 21.4859L46.0729 12.6864C47.5555 11.2039 49.6618 10.718 51.5545 11.2252C51.264 11.3149 50.979 11.4321 50.7037 11.5774C49.5464 12.1884 48.6968 13.2131 48.3105 14.4638C47.9247 15.7138 48.0486 17.0395 48.6596 18.1967C49.2706 19.3533 50.2954 20.2036 51.5454 20.5893C52.243 20.8048 52.951 20.9799 53.6639 21.1191L45.291 29.492ZM68.1764 9.86351L72.6789 4.45454C73.3046 3.70258 74.4252 3.60004 75.1765 4.22626C75.5403 4.529 75.7643 4.95625 75.8076 5.42805C75.851 5.89925 75.7075 6.35946 75.4048 6.72384L70.9016 12.1322C69.0034 14.4131 66.5455 16.177 63.794 17.2342C60.1953 18.6166 56.1731 18.7472 52.4676 17.6028C52.0153 17.4631 51.6442 17.1554 51.4233 16.7367C51.2017 16.318 51.1572 15.8383 51.2969 15.3854C51.4367 14.9331 51.7443 14.562 52.163 14.3405C52.4218 14.2038 52.7038 14.1348 52.9889 14.1348C53.1646 14.1348 53.3416 14.161 53.5144 14.2147C54.3585 14.4754 55.213 14.6511 56.0681 14.747C56.2054 14.7793 56.347 14.7934 56.4892 14.7873C57.7014 14.8855 58.9111 14.822 60.0879 14.6054C60.2368 14.5803 60.3839 14.5511 60.5298 14.5169C60.5384 14.515 60.5469 14.5132 60.5548 14.5114C60.586 14.5041 60.6165 14.4973 60.647 14.4894C63.5328 13.8321 66.1915 12.247 68.1764 9.86351ZM55.1947 7.82859C55.1947 6.8276 55.5847 5.88643 56.2927 5.17842L57.4084 4.06269C58.139 3.33209 59.0985 2.9671 60.0586 2.9671C61.0181 2.9671 61.9776 3.33209 62.7082 4.06269C63.4162 4.7707 63.8062 5.71187 63.8062 6.71285C63.8062 7.71384 63.4162 8.65501 62.7082 9.36241L61.5924 10.4788C61.0651 11.0061 60.4175 11.34 59.737 11.4871C59.6906 11.4962 59.6442 11.506 59.5978 11.5151C58.4485 11.7178 57.2241 11.3833 56.3293 10.5123C56.3177 10.5001 56.3068 10.4879 56.2945 10.4763C56.2787 10.4598 56.2616 10.4452 56.2451 10.4293C55.5682 9.7274 55.1947 8.80699 55.1947 7.82859ZM8.03366 21.3419L7.73459 19.1556C14.8166 18.9255 21.8881 17.233 28.2944 14.2233C32.7464 12.1322 37.6988 11.0269 42.6171 11.0269H43.3129L33.9592 20.3806C33.9567 20.383 33.9549 20.3854 33.9524 20.3879L31.226 23.115C30.034 24.307 29.2893 25.8426 29.0775 27.4808L21.2979 39.4957C14.0725 36.0533 9.11888 29.282 8.03366 21.3419Z" fill="url(#paint0_linear_711_5826)"/>
<path d="M17.8664 61.0159L5.88453 72.9978C5.27417 73.6082 5.27417 74.5976 5.88453 75.2079C6.1897 75.5131 6.58949 75.6657 6.98927 75.6657C7.38905 75.6657 7.78945 75.5131 8.09402 75.2079L20.0759 63.226C20.6863 62.6156 20.6863 61.6263 20.0759 61.0159C19.4662 60.4062 18.4768 60.4062 17.8664 61.0159Z" fill="url(#paint1_linear_711_5826)"/>
<path d="M2.81215 76.7188C2.40077 76.7188 1.99793 76.8854 1.7074 77.1765C1.41626 77.467 1.24902 77.8705 1.24902 78.2813C1.24902 78.692 1.41626 79.0955 1.7074 79.386C1.99793 79.6765 2.40077 79.8438 2.81215 79.8438C3.22292 79.8438 3.62575 79.6765 3.91689 79.386C4.20742 79.0955 4.37466 78.692 4.37466 78.2813C4.37466 77.8705 4.20742 77.467 3.91689 77.1765C3.62575 76.886 3.22292 76.7188 2.81215 76.7188Z" fill="url(#paint2_linear_711_5826)"/>
<path d="M31.0837 61.0159C30.474 60.4062 29.4846 60.4062 28.8742 61.0159L21.1135 68.7766C20.5032 69.3869 20.5032 70.3763 21.1135 70.9867C21.4187 71.2919 21.8185 71.4445 22.2183 71.4445C22.6181 71.4445 23.0178 71.2919 23.323 70.9867L31.0837 63.226C31.6941 62.6156 31.6941 61.6263 31.0837 61.0159Z" fill="url(#paint3_linear_711_5826)"/>
<path d="M77.0279 33.7664L62.9482 37.0025C62.3946 37.1295 61.9533 37.5476 61.7964 38.0939C61.6396 38.6401 61.7915 39.2279 62.1932 39.6301L63.2533 40.6897L26.7791 77.1646C26.1687 77.775 26.1687 78.7643 26.7791 79.3747C27.0836 79.6793 27.484 79.8325 27.8838 79.8325C28.2836 79.8325 28.684 79.6793 28.9885 79.3747L66.5682 41.7951C67.1785 41.1847 67.1785 40.1953 66.5682 39.585L66.3991 39.4159L75.2963 37.3706L73.2516 46.2677L73.0825 46.0987C72.4722 45.4889 71.4828 45.4889 70.8724 46.0987L43.8538 73.1179C43.2434 73.7277 43.2434 74.7171 43.8538 75.3274C44.4635 75.9378 45.4529 75.9378 46.0633 75.3274L71.9772 49.4135L73.0374 50.4737C73.439 50.8753 74.0267 51.0279 74.5736 50.8704C75.1199 50.7136 75.538 50.2729 75.6649 49.7187L78.901 35.639C79.0219 35.1147 78.8638 34.5648 78.483 34.1839C78.1027 33.8037 77.5528 33.6456 77.0279 33.7664Z" fill="url(#paint4_linear_711_5826)"/>
<path d="M40.9126 76.707C40.5 76.707 40.0984 76.8724 39.806 77.163C39.5155 77.4553 39.3501 77.8569 39.3501 78.2695C39.3501 78.6803 39.5155 79.0819 39.806 79.3743C40.0984 79.6648 40.5018 79.8321 40.9126 79.8321C41.3234 79.8321 41.725 79.6648 42.0174 79.3743C42.3079 79.0819 42.4751 78.6803 42.4751 78.2695C42.4751 77.8569 42.3079 77.4553 42.0174 77.163C41.7268 76.8724 41.3234 76.707 40.9126 76.707Z" fill="url(#paint5_linear_711_5826)"/>
</g>
<defs>
<linearGradient id="paint0_linear_711_5826" x1="41.6629" y1="-0.15625" x2="41.6629" y2="61.6236" gradientUnits="userSpaceOnUse">
<stop offset="0.05" stop-color="#0E42E4"/>
<stop offset="0.96" stop-color="#66E6C1"/>
</linearGradient>
<linearGradient id="paint1_linear_711_5826" x1="12.9802" y1="60.5586" x2="12.9802" y2="75.6657" gradientUnits="userSpaceOnUse">
<stop offset="0.05" stop-color="#0E42E4"/>
<stop offset="0.96" stop-color="#66E6C1"/>
</linearGradient>
<linearGradient id="paint2_linear_711_5826" x1="2.81184" y1="76.7188" x2="2.81184" y2="79.8438" gradientUnits="userSpaceOnUse">
<stop offset="0.05" stop-color="#0E42E4"/>
<stop offset="0.96" stop-color="#66E6C1"/>
</linearGradient>
<linearGradient id="paint3_linear_711_5826" x1="26.0986" y1="60.5586" x2="26.0986" y2="71.4445" gradientUnits="userSpaceOnUse">
<stop offset="0.05" stop-color="#0E42E4"/>
<stop offset="0.96" stop-color="#66E6C1"/>
</linearGradient>
<linearGradient id="paint4_linear_711_5826" x1="52.6311" y1="33.7266" x2="52.6311" y2="79.8325" gradientUnits="userSpaceOnUse">
<stop offset="0.05" stop-color="#0E42E4"/>
<stop offset="0.96" stop-color="#66E6C1"/>
</linearGradient>
<linearGradient id="paint5_linear_711_5826" x1="40.9126" y1="76.707" x2="40.9126" y2="79.8321" gradientUnits="userSpaceOnUse">
<stop offset="0.05" stop-color="#0E42E4"/>
<stop offset="0.96" stop-color="#66E6C1"/>
</linearGradient>
<clipPath id="clip0_711_5826">
<rect width="80" height="80" fill="white"/>
</clipPath>
</defs>
</svg>
