<svg width="80" height="80" viewBox="0 0 80 80" fill="none" xmlns="http://www.w3.org/2000/svg">
<path d="M9.22214 5.08452C8.87671 5.08669 8.54047 5.19613 8.25994 5.39771C7.97941 5.59929 7.76844 5.88305 7.65621 6.20976C7.54397 6.53646 7.53601 6.88996 7.63343 7.22139C7.73085 7.55281 7.92883 7.84578 8.20001 8.05978L14.6779 13.3039C14.8464 13.4531 15.0433 13.5667 15.2569 13.6377C15.4704 13.7087 15.6961 13.7358 15.9204 13.7172C16.1447 13.6987 16.3629 13.6349 16.5619 13.5297C16.7609 13.4245 16.9365 13.2801 17.0782 13.1053C17.2198 12.9304 17.3246 12.7286 17.3862 12.5122C17.4478 12.2957 17.4649 12.069 17.4365 11.8457C17.4081 11.6225 17.3347 11.4073 17.2209 11.2131C17.1071 11.019 16.9552 10.8499 16.7742 10.716L10.2996 5.46863C9.99701 5.21751 9.61537 5.08145 9.22214 5.08452ZM70.7261 5.08452C70.3508 5.09344 69.9894 5.22878 69.7007 5.46863L63.2261 10.716C63.0451 10.8499 62.8932 11.019 62.7793 11.2131C62.6655 11.4073 62.5922 11.6225 62.5638 11.8457C62.5354 12.069 62.5525 12.2957 62.6141 12.5122C62.6757 12.7286 62.7805 12.9304 62.9221 13.1053C63.0638 13.2801 63.2394 13.4245 63.4384 13.5297C63.6373 13.6349 63.8555 13.6987 64.0798 13.7172C64.3041 13.7358 64.5299 13.7087 64.7434 13.6377C64.957 13.5667 65.1539 13.4531 65.3224 13.3039L71.8003 8.05978C72.0751 7.84308 72.2748 7.54535 72.371 7.20881C72.4672 6.87226 72.4549 6.51399 72.3361 6.18477C72.2172 5.85556 71.9977 5.57211 71.7088 5.37463C71.4198 5.17715 71.076 5.07565 70.7261 5.08452ZM40.5177 8.34949C39.6064 8.32964 38.7055 8.36744 37.8159 8.46017C27.1412 9.57289 18.3335 18.5516 18.3335 29.5344C18.3335 36.7167 21.4105 40.7283 24.2156 44.3521C27.0207 47.9759 29.6041 51.2807 29.9513 58.4146C29.9566 58.5255 29.9729 58.6357 30.0001 58.7434V66.6666C30.0001 71.2491 33.7509 74.9999 38.3335 74.9999H41.6668C46.2493 74.9999 50.0001 71.2491 50.0001 66.6666V64.9999C50.0033 64.779 49.9625 64.5598 49.8801 64.3548C49.7977 64.1499 49.6755 63.9633 49.5204 63.806C49.3653 63.6488 49.1805 63.5239 48.9768 63.4386C48.773 63.3534 48.5543 63.3095 48.3335 63.3095C48.1126 63.3095 47.8939 63.3534 47.6902 63.4386C47.4864 63.5239 47.3016 63.6488 47.1465 63.806C46.9915 63.9633 46.8692 64.1499 46.7868 64.3548C46.7045 64.5598 46.6637 64.779 46.6668 64.9999V66.6666C46.6668 69.4474 44.4476 71.6665 41.6668 71.6665H38.3335C35.5527 71.6665 33.3335 69.4474 33.3335 66.6666V58.3332C33.333 58.107 33.2865 57.8833 33.1968 57.6757C32.674 50.1434 29.596 45.8587 26.8524 42.3143C24.0325 38.6715 21.6668 35.8187 21.6668 29.5344C21.6668 17.2615 34.7276 7.7532 47.5425 13.2486C54.6195 16.2838 58.8251 23.3409 58.2814 31.0416C57.8948 36.5238 55.5222 39.2291 52.7931 42.7733C50.275 46.0436 47.6409 50.1064 46.9435 56.6666H38.2846C38.0638 56.6634 37.8445 56.7042 37.6396 56.7866C37.4346 56.8689 37.2481 56.9912 37.0908 57.1463C36.9335 57.3014 36.8086 57.4861 36.7234 57.6899C36.6381 57.8937 36.5942 58.1123 36.5942 58.3332C36.5942 58.5541 36.6381 58.7728 36.7234 58.9765C36.8086 59.1803 36.9335 59.3651 37.0908 59.5201C37.2481 59.6752 37.4346 59.7975 37.6396 59.8798C37.8445 59.9622 38.0638 60.003 38.2846 59.9999H48.3823C48.8106 60.0004 49.2226 59.836 49.5329 59.5408C49.8432 59.2456 50.028 58.8424 50.049 58.4146C50.382 51.5797 52.7676 48.2694 55.4331 44.8078C58.0985 41.3462 61.1532 37.682 61.605 31.2759C62.2446 22.2166 57.2206 13.7736 48.8543 10.1854C46.0671 8.99019 43.2516 8.40905 40.5177 8.34949ZM3.33347 29.9999C3.11262 29.9968 2.89335 30.0376 2.6884 30.1199C2.48345 30.2023 2.29692 30.3245 2.13963 30.4796C1.98235 30.6347 1.85746 30.8195 1.77221 31.0232C1.68697 31.227 1.64307 31.4457 1.64307 31.6666C1.64307 31.8874 1.68697 32.1061 1.77221 32.3099C1.85746 32.5136 1.98235 32.6984 2.13963 32.8535C2.29692 33.0086 2.48345 33.1308 2.6884 33.2132C2.89335 33.2955 3.11262 33.3363 3.33347 33.3332H11.6668C11.8877 33.3363 12.1069 33.2955 12.3119 33.2132C12.5168 33.1308 12.7034 33.0086 12.8606 32.8535C13.0179 32.6984 13.1428 32.5136 13.2281 32.3099C13.3133 32.1061 13.3572 31.8874 13.3572 31.6666C13.3572 31.4457 13.3133 31.227 13.2281 31.0232C13.1428 30.8195 13.0179 30.6347 12.8606 30.4796C12.7034 30.3245 12.5168 30.2023 12.3119 30.1199C12.1069 30.0376 11.8877 29.9968 11.6668 29.9999H3.33347ZM68.3335 29.9999C68.1126 29.9968 67.8934 30.0376 67.6884 30.1199C67.4835 30.2023 67.2969 30.3245 67.1396 30.4796C66.9824 30.6347 66.8575 30.8195 66.7722 31.0232C66.687 31.227 66.6431 31.4457 66.6431 31.6666C66.6431 31.8874 66.687 32.1061 66.7722 32.3099C66.8575 32.5136 66.9824 32.6984 67.1396 32.8535C67.2969 33.0086 67.4835 33.1308 67.6884 33.2132C67.8934 33.2955 68.1126 33.3363 68.3335 33.3332H76.6668C76.8877 33.3363 77.1069 33.2955 77.3119 33.2132C77.5168 33.1308 77.7034 33.0086 77.8606 32.8535C78.0179 32.6984 78.1428 32.5136 78.2281 32.3099C78.3133 32.1061 78.3572 31.8874 78.3572 31.6666C78.3572 31.4457 78.3133 31.227 78.2281 31.0232C78.1428 30.8195 78.0179 30.6347 77.8606 30.4796C77.7034 30.3245 77.5168 30.2023 77.3119 30.1199C77.1069 30.0376 76.8877 29.9968 76.6668 29.9999H68.3335ZM15.7033 49.6418C15.3276 49.6516 14.9662 49.7882 14.6779 50.0292L8.20001 55.2733C8.02983 55.4112 7.88848 55.5812 7.78402 55.7737C7.67956 55.9662 7.61404 56.1773 7.5912 56.3951C7.56836 56.613 7.58865 56.8331 7.65091 57.0431C7.71316 57.2531 7.81617 57.4487 7.95405 57.6189C8.09192 57.789 8.26196 57.9303 8.45446 58.0348C8.64696 58.1392 8.85815 58.2047 9.07596 58.2275C9.29377 58.2503 9.51394 58.23 9.7239 58.1677C9.93385 58.1054 10.1295 58.0024 10.2996 57.8645L16.7742 52.6171C17.0488 52.4005 17.2484 52.1031 17.3446 51.7669C17.4409 51.4307 17.4289 51.0727 17.3105 50.7437C17.192 50.4146 16.9731 50.1312 16.6847 49.9334C16.3962 49.7357 16.0529 49.6337 15.7033 49.6418ZM64.2482 49.6418C63.9028 49.644 63.5665 49.7534 63.286 49.955C63.0055 50.1566 62.7945 50.4403 62.6823 50.7671C62.57 51.0938 62.5621 51.4473 62.6595 51.7787C62.7569 52.1101 62.9549 52.4031 63.2261 52.6171L69.7007 57.8645C70.0443 58.1429 70.4844 58.2734 70.9243 58.2273C71.3641 58.1812 71.7676 57.9623 72.046 57.6187C72.3245 57.2751 72.455 56.835 72.4089 56.3951C72.3628 55.9553 72.1439 55.5518 71.8003 55.2733L65.3224 50.0292C65.0211 49.7776 64.6407 49.6404 64.2482 49.6418Z" fill="url(#paint0_linear_711_5819)"/>
<defs>
<linearGradient id="paint0_linear_711_5819" x1="40.0001" y1="5.08398" x2="40.0001" y2="74.9999" gradientUnits="userSpaceOnUse">
<stop offset="0.05" stop-color="#0E42E4"/>
<stop offset="0.96" stop-color="#66E6C1"/>
</linearGradient>
</defs>
</svg>
