<svg width="66" height="72" viewBox="0 0 66 72" fill="none" xmlns="http://www.w3.org/2000/svg">
<path d="M32.7896 70.211C38.4341 70.211 43.0099 65.6352 43.0099 59.9907C43.0099 54.3463 38.4341 49.7705 32.7896 49.7705C27.1451 49.7705 22.5694 54.3463 22.5694 59.9907C22.5694 65.6352 27.1451 70.211 32.7896 70.211Z" stroke="url(#paint0_linear_711_19981)" stroke-width="3.52734" stroke-miterlimit="10"/>
<path d="M12.2359 58.1683C17.8803 58.1683 22.4561 53.5926 22.4561 47.9481C22.4561 42.3036 17.8803 37.7279 12.2359 37.7279C6.59138 37.7279 2.01562 42.3036 2.01562 47.9481C2.01562 53.5926 6.59138 58.1683 12.2359 58.1683Z" stroke="url(#paint1_linear_711_19981)" stroke-width="3.52734" stroke-miterlimit="10"/>
<path d="M12.3886 34.3466C18.033 34.3466 22.6088 29.7708 22.6088 24.1263C22.6088 18.4818 18.033 13.9061 12.3886 13.9061C6.74407 13.9061 2.16831 18.4818 2.16831 24.1263C2.16831 29.7708 6.74407 34.3466 12.3886 34.3466Z" stroke="url(#paint2_linear_711_19981)" stroke-width="3.52734" stroke-miterlimit="10"/>
<path d="M33.095 22.5674C38.7395 22.5674 43.3152 17.9917 43.3152 12.3472C43.3152 6.70271 38.7395 2.12695 33.095 2.12695C27.4505 2.12695 22.8748 6.70271 22.8748 12.3472C22.8748 17.9917 27.4505 22.5674 33.095 22.5674Z" stroke="url(#paint3_linear_711_19981)" stroke-width="3.52734" stroke-miterlimit="10"/>
<path d="M53.6488 34.6101C59.2933 34.6101 63.869 30.0343 63.869 24.3898C63.869 18.7454 59.2933 14.1696 53.6488 14.1696C48.0043 14.1696 43.4285 18.7454 43.4285 24.3898C43.4285 30.0343 48.0043 34.6101 53.6488 34.6101Z" stroke="url(#paint4_linear_711_19981)" stroke-width="3.52734" stroke-miterlimit="10"/>
<path d="M53.4961 58.4319C59.1406 58.4319 63.7163 53.8561 63.7163 48.2116C63.7163 42.5671 59.1406 37.9914 53.4961 37.9914C47.8516 37.9914 43.2758 42.5671 43.2758 48.2116C43.2758 53.8561 47.8516 58.4319 53.4961 58.4319Z" stroke="url(#paint5_linear_711_19981)" stroke-width="3.52734" stroke-miterlimit="10"/>
<defs>
<linearGradient id="paint0_linear_711_19981" x1="12.6029" y1="10.0076" x2="49.9129" y2="60.6163" gradientUnits="userSpaceOnUse">
<stop stop-color="#0E42E4"/>
<stop offset="1" stop-color="#29CE9E"/>
</linearGradient>
<linearGradient id="paint1_linear_711_19981" x1="12.6029" y1="10.0076" x2="49.9129" y2="60.6163" gradientUnits="userSpaceOnUse">
<stop stop-color="#0E42E4"/>
<stop offset="1" stop-color="#29CE9E"/>
</linearGradient>
<linearGradient id="paint2_linear_711_19981" x1="12.6029" y1="10.0076" x2="49.9129" y2="60.6163" gradientUnits="userSpaceOnUse">
<stop stop-color="#0E42E4"/>
<stop offset="1" stop-color="#29CE9E"/>
</linearGradient>
<linearGradient id="paint3_linear_711_19981" x1="12.6029" y1="10.0076" x2="49.9129" y2="60.6163" gradientUnits="userSpaceOnUse">
<stop stop-color="#0E42E4"/>
<stop offset="1" stop-color="#29CE9E"/>
</linearGradient>
<linearGradient id="paint4_linear_711_19981" x1="12.6029" y1="10.0076" x2="49.9129" y2="60.6163" gradientUnits="userSpaceOnUse">
<stop stop-color="#0E42E4"/>
<stop offset="1" stop-color="#29CE9E"/>
</linearGradient>
<linearGradient id="paint5_linear_711_19981" x1="12.6029" y1="10.0076" x2="49.9129" y2="60.6163" gradientUnits="userSpaceOnUse">
<stop stop-color="#0E42E4"/>
<stop offset="1" stop-color="#29CE9E"/>
</linearGradient>
</defs>
</svg>
