<svg width="80" height="80" viewBox="0 0 80 80" fill="none" xmlns="http://www.w3.org/2000/svg">
<g clip-path="url(#clip0_711_5783)">
<path d="M72.1801 62.2037C73.7603 60.0308 74.6168 57.4157 74.6281 54.729C74.6451 54.3757 74.5211 54.0301 74.2833 53.7683C74.0455 53.5065 73.7134 53.3499 73.3601 53.333C72.6273 53.3056 72.0071 53.869 71.9641 54.601C71.9741 56.7303 71.3182 58.8095 70.0881 60.5477C67.4868 63.833 62.5508 63.9997 61.5868 63.9997C60.8504 63.9997 60.2534 64.5966 60.2534 65.333C60.2534 66.0694 60.8504 66.6663 61.5868 66.6663C62.7654 66.6663 68.8148 66.4517 72.1801 62.2037Z" fill="url(#paint0_linear_711_5783)"/>
<path d="M45.3332 45.332C45.3332 44.5957 44.7362 43.9987 43.9998 43.9987C43.2635 43.9987 42.6665 44.5957 42.6665 45.332C42.6665 48.2775 45.0543 50.6654 47.9998 50.6654V51.9987C47.9998 52.7351 48.5968 53.332 49.3332 53.332C50.0696 53.332 50.6665 52.7351 50.6665 51.9987V50.6654C53.612 50.6654 55.9998 48.2775 55.9998 45.332C55.9998 42.3865 53.612 39.9987 50.6665 39.9987V34.6654C52.1393 34.6654 53.3332 35.8593 53.3332 37.332C53.3332 38.0684 53.9301 38.6654 54.6665 38.6654C55.4029 38.6654 55.9998 38.0684 55.9998 37.332C55.9998 34.3865 53.612 31.9987 50.6665 31.9987V30.6654C50.6665 29.929 50.0696 29.332 49.3332 29.332C48.5968 29.332 47.9998 29.929 47.9998 30.6654V31.9987C45.0543 31.9987 42.6665 34.3865 42.6665 37.332C42.6665 40.2775 45.0543 42.6654 47.9998 42.6654V47.9987C46.5271 47.9987 45.3332 46.8048 45.3332 45.332ZM45.3332 37.332C45.3332 35.8593 46.5271 34.6654 47.9998 34.6654V39.9987C46.5271 39.9987 45.3332 38.8048 45.3332 37.332ZM50.6665 42.6654C52.1393 42.6654 53.3332 43.8593 53.3332 45.332C53.3332 46.8048 52.1393 47.9987 50.6665 47.9987V42.6654Z" fill="url(#paint1_linear_711_5783)"/>
<path d="M78.8853 45.0271C75.6 31.0657 68.296 22.9764 63.0213 18.751C69.636 19.2497 71.7653 22.0017 71.828 22.0844C72.2457 22.6807 73.0646 22.8317 73.6675 22.4235C74.2704 22.0154 74.4344 21.1991 74.036 20.5897C73.94 20.4457 72.088 17.8004 66.7027 16.5897C68.0797 15.4577 68.8943 13.7812 68.9333 11.999C68.7551 9.0443 66.6981 6.53874 63.8347 5.78838C63.9521 4.82525 64.0117 3.85596 64.0133 2.88571C64.0119 1.99184 63.5627 1.15815 62.817 0.665291C62.0713 0.172436 61.1282 0.0859847 60.3053 0.435041C59.6322 0.739809 59.007 1.1409 58.4493 1.62571C57.795 2.29814 56.8942 2.67386 55.956 2.66571C55.0193 2.6723 54.1203 2.29674 53.4667 1.62571C51.1169 -0.544507 47.4938 -0.544507 45.144 1.62571C44.4896 2.2996 43.5873 2.67553 42.648 2.66571C41.7114 2.67349 40.8124 2.29771 40.16 1.62571C39.6038 1.14194 38.9804 0.741332 38.3093 0.436375C37.487 0.0896575 36.5457 0.177289 35.8015 0.669852C35.0573 1.16241 34.6089 1.9946 34.6067 2.88704C34.6067 6.20438 35.2627 12.1217 39.416 16.095C37.2332 17.4223 35.1947 18.9733 33.3333 20.723V10.6657C33.3333 7.62571 29.0333 5.33238 23.3333 5.33238C17.6333 5.33238 13.3333 7.62571 13.3333 10.6657V24.099C8.65733 24.5657 5.33333 26.6657 5.33333 29.3324V63.2457C2.112 64.1111 0 65.8657 0 67.9991V74.6657C0 77.7057 4.3 79.9991 10 79.9991C15.0973 79.9991 19.0667 78.1631 19.8493 75.5991C22.1509 76.8177 24.7304 77.4151 27.3333 77.3324C33.0333 77.3324 37.3333 75.0391 37.3333 71.9991V54.6657C37.3333 51.6257 33.0333 49.3324 27.3333 49.3324C26.6654 49.3319 25.9979 49.3653 25.3333 49.4324V29.3324C25.3333 26.4124 21.364 24.1884 16 24.0164V14.3577C18.2683 15.5106 20.79 16.075 23.3333 15.999C25.8767 16.075 28.3984 15.5106 30.6667 14.3577V23.451C29.788 24.4337 28.9053 25.5044 28.0347 26.691C27.636 27.2848 27.7767 28.0873 28.3536 28.5099C28.9305 28.9326 29.7381 28.8248 30.184 28.2657C31.0404 27.1064 31.9581 25.9937 32.9333 24.9324C32.944 24.9204 32.9533 24.9084 32.964 24.8977C35.5093 22.069 38.4981 19.6737 41.8133 17.8057C42.4669 18.121 43.1584 18.3509 43.8707 18.4897L40.4333 21.6977C39.895 22.2007 39.8664 23.0448 40.3693 23.583C40.8723 24.1213 41.7164 24.15 42.2547 23.647L47.588 18.6724H48.0133V22.6724C48.0133 23.4088 48.6103 24.0057 49.3467 24.0057C50.083 24.0057 50.68 23.4088 50.68 22.6724V18.6657H51.1053L56.4387 23.6404C56.7869 23.9657 57.2822 24.0806 57.7381 23.9417C58.194 23.8028 58.5411 23.4313 58.6488 22.967C58.7564 22.5028 58.6082 22.0164 58.26 21.691L54.8 18.4697C55.508 18.3296 56.195 18.0988 56.844 17.783C60.368 19.6897 71.952 27.223 76.2907 45.6377C78.1773 53.6537 77.4973 59.7857 74.2707 63.8591C70.1427 69.0657 62.98 69.3324 61.5867 69.3324H42.6667C41.9303 69.3324 41.3333 69.9293 41.3333 70.6657C41.3333 71.4021 41.9303 71.9991 42.6667 71.9991H61.5867C63.8533 71.9991 71.5933 71.5311 76.36 65.5151C80.1173 60.7697 80.968 53.8764 78.8853 45.0271ZM10 65.3324C14.4093 65.3324 17.3333 66.9324 17.3333 67.9991C17.3333 69.0657 14.4093 70.6657 10 70.6657C5.59067 70.6657 2.66667 69.0657 2.66667 67.9991C2.66667 66.9324 5.59067 65.3324 10 65.3324ZM10 77.3324C5.59067 77.3324 2.66667 75.7324 2.66667 74.6657V71.6911C4.93497 72.844 7.45664 73.4084 10 73.3324C12.5434 73.4084 15.065 72.844 17.3333 71.6911V74.6657C17.3333 75.7324 14.4093 77.3324 10 77.3324ZM27.3333 74.6657C22.924 74.6657 20 73.0657 20 71.9991V58.3577C22.2683 59.5106 24.79 60.075 27.3333 59.9991C29.8767 60.075 32.3984 59.5106 34.6667 58.3577V71.9991C34.6667 73.0657 31.7427 74.6657 27.3333 74.6657ZM34.6667 54.6657C34.6667 55.7324 31.7427 57.3324 27.3333 57.3324C22.924 57.3324 20 55.7324 20 54.6657C20 53.599 22.924 51.9991 27.3333 51.9991C31.7427 51.9991 34.6667 53.599 34.6667 54.6657ZM17.3333 54.6657V64.3071C15.065 63.1541 12.5434 62.5897 10 62.6657C9.33207 62.6653 8.66455 62.6986 8 62.7657V33.0244C10.2683 34.1773 12.79 34.7417 15.3333 34.6657C17.8767 34.7417 20.3984 34.1773 22.6667 33.0244V49.9124C19.4453 50.7777 17.3333 52.5324 17.3333 54.6657ZM22.6667 29.3324C22.6667 30.399 19.7427 31.999 15.3333 31.999C10.924 31.999 8 30.399 8 29.3324C8 28.2657 10.924 26.6657 15.3333 26.6657C19.7427 26.6657 22.6667 28.2657 22.6667 29.3324ZM23.3333 13.3324C18.924 13.3324 16 11.7324 16 10.6657C16 9.59904 18.924 7.99904 23.3333 7.99904C27.7427 7.99904 30.6667 9.59904 30.6667 10.6657C30.6667 11.7324 27.7427 13.3324 23.3333 13.3324ZM66.2667 11.999C66.2667 14.1844 63.9 15.9777 60.9333 15.999C60.4371 15.9959 59.9427 15.9391 59.4587 15.8297C61.3939 13.7651 62.7389 11.2186 63.3533 8.45638C64.9583 8.92927 66.1126 10.333 66.2667 11.999ZM38.4907 3.70571C39.6167 4.76082 41.1049 5.34314 42.648 5.33238C44.192 5.34397 45.6814 4.76158 46.808 3.70571C47.4671 3.04029 48.3648 2.66593 49.3013 2.66593C50.2379 2.66593 51.1356 3.04029 51.7947 3.70571C52.9213 4.76237 54.4114 5.34486 55.956 5.33238C57.5005 5.34431 58.9904 4.7619 60.1173 3.70571C60.4868 3.37914 60.898 3.10296 61.34 2.88437C61.34 5.36038 60.88 11.4817 56.584 14.8377C55.6175 15.5636 54.4459 15.9645 53.2373 15.983C54.3916 14.0005 55.3052 11.8874 55.9587 9.68838C56.0863 9.22917 55.9593 8.73674 55.6255 8.39658C55.2916 8.05642 54.8017 7.9202 54.3401 8.03924C53.8786 8.15829 53.5157 8.5145 53.388 8.97371C52.6495 11.4801 51.5143 13.8519 50.0253 15.999H48.6547C47.1687 13.85 46.0332 11.4787 45.2907 8.97371C45.093 8.26421 44.3575 7.84932 43.648 8.04704C42.9385 8.24476 42.5236 8.98021 42.7213 9.68971C43.3755 11.8906 44.29 14.0055 45.4453 15.9897C44.2126 15.9834 43.0147 15.5799 42.0293 14.839C37.7333 11.4844 37.2733 5.36304 37.2733 2.89504C37.7152 3.10673 38.125 3.37964 38.4907 3.70571Z" fill="url(#paint2_linear_711_5783)"/>
<path d="M72.1801 62.2036C73.7603 60.0307 74.6168 57.4156 74.6281 54.7289C74.6451 54.3756 74.5211 54.03 74.2833 53.7682C74.0455 53.5064 73.7134 53.3498 73.3601 53.3329C72.6279 53.307 72.0085 53.8695 71.9641 54.6009C71.9741 56.7302 71.3182 58.8094 70.0881 60.5476C67.4868 63.8329 62.5508 63.9996 61.5868 63.9996C60.8504 63.9996 60.2534 64.5965 60.2534 65.3329C60.2534 66.0693 60.8504 66.6662 61.5868 66.6662C62.7654 66.6662 68.8148 66.4516 72.1801 62.2036Z" fill="url(#paint3_linear_711_5783)"/>
</g>
<defs>
<linearGradient id="paint0_linear_711_5783" x1="67.4415" y1="53.332" x2="67.4415" y2="66.6663" gradientUnits="userSpaceOnUse">
<stop offset="0.05" stop-color="#0E42E4"/>
<stop offset="0.96" stop-color="#66E6C1"/>
</linearGradient>
<linearGradient id="paint1_linear_711_5783" x1="49.3332" y1="29.332" x2="49.3332" y2="53.332" gradientUnits="userSpaceOnUse">
<stop offset="0.05" stop-color="#0E42E4"/>
<stop offset="0.96" stop-color="#66E6C1"/>
</linearGradient>
<linearGradient id="paint2_linear_711_5783" x1="39.9978" y1="-0.00195313" x2="39.9978" y2="79.9991" gradientUnits="userSpaceOnUse">
<stop offset="0.05" stop-color="#0E42E4"/>
<stop offset="0.96" stop-color="#66E6C1"/>
</linearGradient>
<linearGradient id="paint3_linear_711_5783" x1="67.4415" y1="53.332" x2="67.4415" y2="66.6662" gradientUnits="userSpaceOnUse">
<stop offset="0.05" stop-color="#0E42E4"/>
<stop offset="0.96" stop-color="#66E6C1"/>
</linearGradient>
<clipPath id="clip0_711_5783">
<rect width="80" height="80" fill="white"/>
</clipPath>
</defs>
</svg>
