<svg width="276" height="48" viewBox="0 0 276 48" fill="none" xmlns="http://www.w3.org/2000/svg">
<g clip-path="url(#clip0_711_2902)">
<path d="M65.2451 17.7774H70.7562L71.2007 20.0885H71.5562C72.3562 19.1997 73.4229 18.5774 74.4896 18.133C75.6451 17.6885 76.8896 17.4219 78.2229 17.4219C80.6229 17.4219 82.5785 18.133 83.9118 19.6441C85.334 21.0663 86.0451 23.3774 86.0451 26.4885V40.7997H79.3785V26.933C79.3785 25.5997 79.1118 24.6219 78.5785 24.0885C78.0451 23.5552 77.2451 23.2885 76.1785 23.2885C75.3785 23.2885 74.5785 23.4663 73.8673 23.733C73.1562 24.0885 72.4451 24.533 72.0007 25.1552V40.7997H65.334L65.2451 17.7774Z" fill="#040A0F"/>
<path d="M91.1116 13.5113C90.4005 12.889 90.0449 12.089 90.0449 10.9335C90.0449 9.77792 90.4005 8.97792 91.1116 8.35569C91.8227 7.73346 92.8005 7.4668 94.2227 7.4668C95.6449 7.4668 96.6227 7.73346 97.3338 8.35569C98.0449 8.97792 98.4005 9.86681 98.4005 10.9335C98.4005 12.089 98.0449 12.889 97.3338 13.5113C96.6227 14.1335 95.6449 14.4001 94.2227 14.4001C92.8894 14.489 91.8227 14.1335 91.1116 13.5113ZM90.8449 40.7113V17.7779H97.5116V40.7113H90.8449Z" fill="#040A0F"/>
<path d="M117.067 35.3783V40.7117C115.644 41.0672 114.222 41.1561 112.8 41.1561C109.955 41.1561 107.822 40.445 106.4 39.0228C104.978 37.6006 104.178 35.4672 104.178 32.5339V23.0228H100.444V17.7783H104.178L105.422 9.68945H110.933V17.7783H116.978V23.0228H110.933V31.4672C110.933 32.5339 111.022 33.3339 111.289 33.9561C111.555 34.5783 111.911 35.0228 112.444 35.2895C112.978 35.5561 113.689 35.645 114.578 35.645C115.2 35.645 116 35.5561 117.067 35.3783Z" fill="#040A0F"/>
<path d="M120.268 17.7774H125.779L126.312 20.7108H126.668C127.29 19.6441 128.179 18.7552 129.156 18.2219C130.223 17.6885 131.379 17.4219 132.712 17.4219C133.423 17.4219 133.956 17.5108 134.579 17.5997V23.6441C133.956 23.5552 133.245 23.4663 132.356 23.4663C131.379 23.4663 130.312 23.6441 129.334 24.0885C128.356 24.533 127.645 24.9774 127.112 25.6885V40.7108H120.445V17.7774H120.268Z" fill="#040A0F"/>
<path d="M141.156 39.8229C139.467 38.934 138.222 37.6007 137.333 35.8229C136.444 34.0451 136 31.9118 136 29.2451C136 25.334 136.978 22.3118 138.933 20.3562C140.889 18.4007 143.644 17.334 147.2 17.334C150.756 17.334 153.511 18.3118 155.467 20.3562C157.422 22.3118 158.4 25.334 158.4 29.2451C158.4 31.8229 157.956 34.0451 157.067 35.8229C156.178 37.6007 154.844 38.934 153.244 39.8229C151.556 40.7118 149.6 41.1562 147.289 41.1562C144.978 41.1562 142.844 40.7118 141.156 39.8229ZM149.6 35.4673C150.222 35.0229 150.756 34.3118 151.111 33.334C151.467 32.3562 151.644 31.0229 151.644 29.334C151.644 27.6451 151.467 26.3118 151.111 25.2451C150.756 24.1784 150.311 23.5562 149.6 23.1118C148.978 22.6673 148.178 22.4895 147.2 22.4895C146.222 22.4895 145.422 22.6673 144.8 23.1118C144.178 23.5562 143.644 24.2673 143.289 25.2451C142.933 26.2229 142.756 27.5562 142.756 29.2451C142.756 30.934 142.933 32.2673 143.289 33.334C143.644 34.3118 144.089 35.0229 144.8 35.4673C145.422 35.9118 146.222 36.0895 147.289 36.0895C148.356 36.0895 148.978 35.8229 149.6 35.4673Z" fill="#040A0F"/>
<path d="M162.133 40.1774V38.0441C163.2 38.3996 164.266 38.5774 165.244 38.7552C166.222 38.9329 167.2 38.9329 168.177 38.9329C172.177 38.9329 174.222 37.5107 174.222 34.6663C174.222 33.5107 173.955 32.6218 173.333 31.9996C172.711 31.3774 171.733 30.9329 170.311 30.5774L167.377 29.9552C165.422 29.5107 163.911 28.7996 163.022 27.8218C162.133 26.8441 161.688 25.5107 161.688 23.9107C161.688 22.6663 162.044 21.5107 162.666 20.6218C163.288 19.6441 164.266 18.9329 165.511 18.3996C166.755 17.8663 168.355 17.5996 170.311 17.5996C172.177 17.5996 173.866 17.7774 175.466 18.2218V20.3552C174.577 20.0885 173.688 19.9107 172.888 19.8218C172.088 19.7329 171.2 19.6441 170.311 19.6441C168.177 19.6441 166.666 19.9996 165.688 20.7996C164.711 21.5996 164.177 22.5774 164.177 23.8218C164.177 24.8885 164.444 25.6885 165.066 26.3996C165.6 27.0218 166.577 27.5552 167.911 27.8218L170.844 28.4441C172.888 28.8885 174.4 29.5996 175.288 30.5774C176.177 31.5552 176.622 32.8885 176.622 34.4885C176.622 36.5329 175.911 38.1329 174.4 39.2885C172.888 40.4441 170.844 40.9774 168.088 40.9774C166.044 41.1552 164 40.7996 162.133 40.1774Z" fill="#040A0F"/>
<path d="M208.978 18.0449H211.378L204.622 40.7116H201.511L195.289 20.5338L189.067 40.7116H185.956L179.2 18.0449H181.778L187.645 38.1338L193.778 18.0449H196.889L203.022 38.1338L208.978 18.0449Z" fill="#040A0F"/>
<path d="M216 12.1775C215.645 11.9109 215.467 11.4664 215.467 10.9331C215.467 10.3997 215.645 9.9553 216 9.59974C216.356 9.24418 216.8 9.06641 217.422 9.06641C218.045 9.06641 218.489 9.24418 218.845 9.59974C219.2 9.9553 219.378 10.3997 219.378 10.9331C219.378 11.4664 219.2 11.9109 218.845 12.1775C218.489 12.4442 218.045 12.622 217.422 12.622C216.8 12.622 216.267 12.5331 216 12.1775ZM216.089 40.7109V18.0442H218.667V40.7109H216.089Z" fill="#040A0F"/>
<path d="M236.889 38.4895V40.7117C235.823 40.9783 234.667 41.0672 233.6 41.0672C228.889 41.0672 226.578 38.6672 226.578 33.8672V20.1783H222.134V18.045H226.578L226.934 9.68945H229.067V18.045H236.534V20.1783H229.067V33.4228C229.067 35.3783 229.512 36.7117 230.312 37.6006C231.112 38.4006 232.356 38.845 234.045 38.845C234.934 38.845 235.912 38.7561 236.889 38.4895Z" fill="#040A0F"/>
<path d="M241.422 38.3117C239.822 36.445 239.022 33.4228 239.022 29.4228C239.022 25.3339 239.911 22.4006 241.689 20.5339C243.467 18.6672 246.045 17.6895 249.511 17.6895C251.111 17.6895 252.622 17.8672 254.045 18.3117V20.5339C252.534 20.1783 251.111 19.9117 249.689 19.9117C247.822 19.9117 246.311 20.1783 245.156 20.8006C244 21.4228 243.111 22.4006 242.489 23.7339C241.867 25.0672 241.6 26.9339 241.6 29.245C241.6 31.5561 241.867 33.4228 242.4 34.845C242.934 36.2672 243.734 37.245 244.8 37.8672C245.867 38.4895 247.2 38.845 248.889 38.845C250.4 38.845 252.089 38.4895 254.045 37.8672V40.0895C252.267 40.7117 250.4 41.0672 248.622 41.0672C245.422 41.1561 243.111 40.1783 241.422 38.3117Z" fill="#040A0F"/>
<path d="M258.223 6.84375H260.712V20.6215H260.889C261.867 19.6437 262.934 18.9326 264.178 18.3993C265.423 17.9549 266.756 17.6882 268.089 17.6882C270.312 17.6882 272 18.3104 273.334 19.5549C274.578 20.7993 275.2 22.7549 275.2 25.5104V40.7104H272.712V25.5104C272.712 23.5549 272.267 22.1326 271.378 21.2438C270.489 20.3549 269.245 19.9993 267.556 19.9993C266.312 19.9993 265.067 20.266 263.823 20.7993C262.578 21.3326 261.6 22.1326 260.712 23.2882V40.7104H258.223V6.84375Z" fill="#040A0F"/>
<path d="M38.1331 0.445312H24.9775V13.6009H38.1331V0.445312Z" fill="#040A0F"/>
<path d="M13.511 0.445312H0.355469V47.5564H13.511V0.445312Z" fill="#040A0F"/>
<path d="M0.355469 0.445312H13.4221L37.3333 47.5564H24.2666L0.355469 0.445312Z" fill="#363B3F"/>
</g>
<defs>
<clipPath id="clip0_711_2902">
<rect width="275.556" height="48" fill="white"/>
</clipPath>
</defs>
</svg>
