<svg width="197" height="526" viewBox="0 0 197 526" fill="none" xmlns="http://www.w3.org/2000/svg">
<rect width="477" height="426" rx="16" fill="#D9D9D9"/>
<path d="M2.58239 517V490.818H12.4006C14.4119 490.818 16.0994 491.193 17.4631 491.943C18.8352 492.693 19.8707 493.724 20.5696 495.037C21.277 496.341 21.6307 497.824 21.6307 499.486C21.6307 501.165 21.277 502.656 20.5696 503.96C19.8622 505.264 18.8182 506.291 17.4375 507.041C16.0568 507.783 14.3565 508.153 12.3366 508.153H5.82955V504.254H11.6974C12.8736 504.254 13.8366 504.05 14.5866 503.641C15.3366 503.232 15.8906 502.669 16.2486 501.953C16.6151 501.237 16.7983 500.415 16.7983 499.486C16.7983 498.557 16.6151 497.739 16.2486 497.031C15.8906 496.324 15.3324 495.774 14.5739 495.382C13.8239 494.982 12.8565 494.781 11.6719 494.781H7.32528V517H2.58239ZM24.8258 517V497.364H29.313V500.636H29.5176C29.8755 499.503 30.4892 498.629 31.3585 498.016C32.2363 497.393 33.2377 497.082 34.3627 497.082C34.6184 497.082 34.9039 497.095 35.2193 497.121C35.5431 497.138 35.8116 497.168 36.0247 497.21V501.467C35.8287 501.399 35.5176 501.339 35.0914 501.288C34.6738 501.229 34.269 501.199 33.8769 501.199C33.0332 501.199 32.2747 501.382 31.6014 501.749C30.9366 502.107 30.4125 502.605 30.0289 503.244C29.6454 503.884 29.4537 504.621 29.4537 505.456V517H24.8258ZM46.136 517.384C44.2184 517.384 42.5565 516.962 41.1502 516.118C39.744 515.274 38.653 514.094 37.8775 512.577C37.1104 511.06 36.7269 509.287 36.7269 507.259C36.7269 505.23 37.1104 503.453 37.8775 501.928C38.653 500.402 39.744 499.217 41.1502 498.374C42.5565 497.53 44.2184 497.108 46.136 497.108C48.0536 497.108 49.7155 497.53 51.1218 498.374C52.528 499.217 53.6147 500.402 54.3817 501.928C55.1573 503.453 55.5451 505.23 55.5451 507.259C55.5451 509.287 55.1573 511.06 54.3817 512.577C53.6147 514.094 52.528 515.274 51.1218 516.118C49.7155 516.962 48.0536 517.384 46.136 517.384ZM46.1616 513.676C47.2013 513.676 48.0707 513.391 48.7695 512.82C49.4684 512.24 49.9883 511.464 50.3292 510.493C50.6786 509.521 50.8533 508.439 50.8533 507.246C50.8533 506.044 50.6786 504.957 50.3292 503.986C49.9883 503.006 49.4684 502.226 48.7695 501.646C48.0707 501.067 47.2013 500.777 46.1616 500.777C45.0962 500.777 44.2099 501.067 43.5025 501.646C42.8036 502.226 42.2795 503.006 41.93 503.986C41.5891 504.957 41.4187 506.044 41.4187 507.246C41.4187 508.439 41.5891 509.521 41.93 510.493C42.2795 511.464 42.8036 512.24 43.5025 512.82C44.2099 513.391 45.0962 513.676 46.1616 513.676ZM58.753 497.364H63.3808V518.125C63.3808 519.54 63.1124 520.707 62.5754 521.628C62.0385 522.548 61.2629 523.234 60.2487 523.686C59.2345 524.138 58.003 524.364 56.5541 524.364C56.3837 524.364 56.226 524.359 56.0811 524.351C55.9362 524.351 55.7786 524.347 55.6081 524.338V520.567C55.736 520.575 55.851 520.58 55.9533 520.58C56.0556 520.588 56.1621 520.592 56.2729 520.592C57.1592 520.592 57.7942 520.375 58.1777 519.94C58.5612 519.514 58.753 518.888 58.753 518.061V497.364ZM61.0541 494.577C60.3127 494.577 59.6777 494.334 59.1493 493.848C58.6294 493.354 58.3695 492.761 58.3695 492.071C58.3695 491.372 58.6294 490.78 59.1493 490.294C59.6777 489.8 60.3127 489.553 61.0541 489.553C61.7871 489.553 62.4135 489.8 62.9334 490.294C63.4618 490.78 63.726 491.372 63.726 492.071C63.726 492.761 63.4618 493.354 62.9334 493.848C62.4135 494.334 61.7871 494.577 61.0541 494.577ZM76.1129 517.384C74.1442 517.384 72.4439 516.974 71.012 516.156C69.5888 515.33 68.4936 514.162 67.7265 512.653C66.9595 511.136 66.576 509.351 66.576 507.297C66.576 505.277 66.9595 503.504 67.7265 501.979C68.5021 500.445 69.5845 499.251 70.9737 498.399C72.3629 497.538 73.995 497.108 75.87 497.108C77.0802 497.108 78.2223 497.304 79.2961 497.696C80.3785 498.08 81.3331 498.676 82.1598 499.486C82.995 500.295 83.6513 501.327 84.1285 502.58C84.6058 503.824 84.8444 505.307 84.8444 507.028V508.447H68.7493V505.328H80.4084C80.3998 504.442 80.2081 503.653 79.8331 502.963C79.4581 502.264 78.9339 501.714 78.2606 501.314C77.5959 500.913 76.8203 500.713 75.9339 500.713C74.9879 500.713 74.1569 500.943 73.441 501.403C72.7251 501.855 72.1669 502.452 71.7663 503.193C71.3743 503.926 71.174 504.732 71.1655 505.609V508.332C71.1655 509.474 71.3743 510.455 71.7919 511.273C72.2095 512.082 72.7933 512.705 73.5433 513.139C74.2933 513.565 75.1711 513.778 76.1768 513.778C76.8501 513.778 77.4595 513.685 78.0049 513.497C78.5504 513.301 79.0234 513.016 79.424 512.641C79.8245 512.266 80.1271 511.801 80.3317 511.247L84.6527 511.733C84.3799 512.875 83.8601 513.872 83.093 514.724C82.3345 515.568 81.3629 516.224 80.1782 516.693C78.9936 517.153 77.6385 517.384 76.1129 517.384ZM96.6049 517.384C94.6447 517.384 92.9614 516.953 91.5552 516.092C90.1575 515.232 89.0793 514.043 88.3208 512.526C87.5708 511 87.1958 509.244 87.1958 507.259C87.1958 505.264 87.5793 503.504 88.3464 501.979C89.1134 500.445 90.1958 499.251 91.5935 498.399C92.9998 497.538 94.6617 497.108 96.5793 497.108C98.1731 497.108 99.5836 497.402 100.811 497.99C102.047 498.57 103.031 499.392 103.764 500.457C104.497 501.514 104.915 502.75 105.017 504.165H100.594C100.415 503.219 99.9884 502.43 99.3151 501.8C98.6504 501.161 97.7597 500.841 96.6433 500.841C95.6972 500.841 94.8663 501.097 94.1504 501.608C93.4344 502.111 92.8762 502.835 92.4756 503.781C92.0836 504.727 91.8876 505.861 91.8876 507.182C91.8876 508.52 92.0836 509.67 92.4756 510.634C92.8677 511.588 93.4174 512.325 94.1248 512.845C94.8407 513.357 95.6802 513.612 96.6433 513.612C97.3251 513.612 97.9344 513.484 98.4714 513.229C99.0168 512.964 99.4728 512.585 99.8393 512.091C100.206 511.597 100.457 510.996 100.594 510.288H105.017C104.906 511.678 104.497 512.909 103.79 513.983C103.082 515.048 102.119 515.884 100.9 516.489C99.6816 517.085 98.2498 517.384 96.6049 517.384ZM117.902 497.364V500.943H106.614V497.364H117.902ZM109.401 492.659H114.029V511.094C114.029 511.716 114.122 512.193 114.31 512.526C114.506 512.849 114.762 513.071 115.077 513.19C115.392 513.31 115.742 513.369 116.125 513.369C116.415 513.369 116.679 513.348 116.918 513.305C117.165 513.263 117.353 513.224 117.48 513.19L118.26 516.808C118.013 516.893 117.659 516.987 117.199 517.089C116.747 517.192 116.193 517.251 115.537 517.268C114.378 517.303 113.334 517.128 112.405 516.744C111.476 516.352 110.739 515.747 110.193 514.929C109.657 514.111 109.392 513.088 109.401 511.861V492.659ZM136.291 502.554L132.073 503.014C131.953 502.588 131.744 502.188 131.446 501.812C131.156 501.438 130.764 501.135 130.27 500.905C129.776 500.675 129.171 500.56 128.455 500.56C127.492 500.56 126.682 500.768 126.026 501.186C125.378 501.604 125.058 502.145 125.067 502.81C125.058 503.381 125.267 503.845 125.693 504.203C126.128 504.561 126.844 504.855 127.841 505.085L131.19 505.801C133.048 506.202 134.429 506.837 135.333 507.706C136.244 508.575 136.705 509.713 136.713 511.119C136.705 512.355 136.342 513.446 135.627 514.392C134.919 515.33 133.935 516.062 132.673 516.591C131.412 517.119 129.963 517.384 128.327 517.384C125.923 517.384 123.989 516.881 122.523 515.875C121.057 514.861 120.183 513.45 119.902 511.643L124.415 511.209C124.619 512.095 125.054 512.764 125.719 513.216C126.384 513.668 127.249 513.893 128.314 513.893C129.413 513.893 130.296 513.668 130.96 513.216C131.634 512.764 131.97 512.206 131.97 511.541C131.97 510.979 131.753 510.514 131.318 510.148C130.892 509.781 130.227 509.5 129.324 509.304L125.975 508.601C124.091 508.209 122.698 507.548 121.794 506.619C120.891 505.682 120.443 504.497 120.452 503.065C120.443 501.855 120.771 500.807 121.436 499.92C122.11 499.026 123.043 498.335 124.236 497.849C125.438 497.355 126.823 497.108 128.391 497.108C130.692 497.108 132.503 497.598 133.824 498.578C135.154 499.558 135.976 500.884 136.291 502.554Z" fill="#061C60"/>
</svg>
