<svg width="46" height="34" viewBox="0 0 46 34" fill="none" xmlns="http://www.w3.org/2000/svg">
<path d="M19.904 13.184C19.904 23.936 12.736 32.256 2.496 33.536V27.392C8 26.368 11.968 22.912 11.968 18.432C10.944 18.816 9.792 19.072 8.384 19.072C3.776 19.072 0.0640001 15.872 0.0640001 10.24C0.0640001 4.60799 3.904 0.639992 9.536 0.639992C15.552 0.639992 19.904 5.504 19.904 13.184ZM45.248 13.184C45.248 23.936 38.08 32.256 27.84 33.536V27.392C33.344 26.368 37.184 22.912 37.184 18.432C36.16 18.816 35.008 19.072 33.6 19.072C28.992 19.072 25.408 15.872 25.408 10.24C25.408 4.60799 29.248 0.639992 34.88 0.639992C40.896 0.639992 45.248 5.504 45.248 13.184Z" fill="#0E42E4"/>
</svg>
