<svg width="80" height="80" viewBox="0 0 80 80" fill="none" xmlns="http://www.w3.org/2000/svg">
<g clip-path="url(#clip0_711_5858)">
<path d="M40.4688 18.75C35.2994 18.75 31.0938 14.5444 31.0938 9.375C31.0938 4.20563 35.2994 0 40.4688 0C45.6381 0 49.8438 4.20563 49.8438 9.375C49.8438 14.5444 45.6381 18.75 40.4688 18.75ZM40.4688 6.25C38.7456 6.25 37.3438 7.65188 37.3438 9.375C37.3438 11.0981 38.7456 12.5 40.4688 12.5C42.1919 12.5 43.5938 11.0981 43.5938 9.375C43.5938 7.65188 42.1919 6.25 40.4688 6.25ZM54.375 35C54.375 27.9352 48.5466 22.1875 41.3825 22.1875H39.5552C32.3909 22.1875 26.5625 27.9352 26.5625 35C26.5625 36.7259 27.9616 38.125 29.6875 38.125C31.4134 38.125 32.8125 36.7259 32.8125 35C32.8125 31.3814 35.8372 28.4375 39.555 28.4375H41.3823C45.1003 28.4375 48.125 31.3814 48.125 35C48.125 36.7259 49.5241 38.125 51.25 38.125C52.9759 38.125 54.375 36.7259 54.375 35ZM13.9062 60.625C8.73688 60.625 4.53125 56.4194 4.53125 51.25C4.53125 46.0806 8.73688 41.875 13.9062 41.875C19.0756 41.875 23.2812 46.0806 23.2812 51.25C23.2812 56.4194 19.0756 60.625 13.9062 60.625ZM13.9062 48.125C12.1831 48.125 10.7812 49.5269 10.7812 51.25C10.7812 52.9731 12.1831 54.375 13.9062 54.375C15.6294 54.375 17.0312 52.9731 17.0312 51.25C17.0312 49.5269 15.6294 48.125 13.9062 48.125ZM27.8125 76.875C27.8125 69.8102 21.9841 64.0625 14.82 64.0625H12.9925C5.82844 64.0625 0 69.8102 0 76.875C0 78.6009 1.39906 80 3.125 80C4.85094 80 6.25 78.6009 6.25 76.875C6.25 73.2564 9.27469 70.3125 12.9925 70.3125H14.8198C18.5378 70.3125 21.5625 73.2564 21.5625 76.875C21.5625 78.6009 22.9616 80 24.6875 80C26.4134 80 27.8125 78.6009 27.8125 76.875ZM66.0938 60.625C60.9244 60.625 56.7188 56.4194 56.7188 51.25C56.7188 46.0806 60.9244 41.875 66.0938 41.875C71.2631 41.875 75.4688 46.0806 75.4688 51.25C75.4688 56.4194 71.2631 60.625 66.0938 60.625ZM66.0938 48.125C64.3706 48.125 62.9688 49.5269 62.9688 51.25C62.9688 52.9731 64.3706 54.375 66.0938 54.375C67.8169 54.375 69.2188 52.9731 69.2188 51.25C69.2188 49.5269 67.8169 48.125 66.0938 48.125ZM80 76.875C80 69.8102 74.1716 64.0625 67.0075 64.0625H65.1802C58.0159 64.0625 52.1875 69.8102 52.1875 76.875C52.1875 78.6009 53.5866 80 55.3125 80C57.0384 80 58.4375 78.6009 58.4375 76.875C58.4375 73.2564 61.4622 70.3125 65.18 70.3125H67.0073C70.7253 70.3125 73.75 73.2564 73.75 76.875C73.75 78.6009 75.1491 80 76.875 80C78.6009 80 80 78.6009 80 76.875ZM68.7191 36.5631C67.3078 36.5631 66.0277 35.6005 65.6831 34.168C64.2272 28.1116 60.6189 22.7647 55.5233 19.1122C54.1205 18.1067 53.7984 16.1545 54.8039 14.7517C55.8097 13.3488 57.762 13.0269 59.1644 14.0323C65.48 18.5592 69.9533 25.1912 71.7602 32.7069C72.1636 34.385 71.1303 36.0723 69.4522 36.4758C69.2067 36.535 68.9609 36.5631 68.7191 36.5631ZM15.0981 34.168C16.5397 28.1722 20.0983 22.8608 25.1184 19.2123C26.5147 18.1977 26.8239 16.2434 25.8092 14.8472C24.7944 13.4511 22.8398 13.1419 21.4441 14.1566C15.222 18.6786 10.81 25.2666 9.02109 32.707C8.61766 34.3852 9.65094 36.0725 11.3291 36.4759C11.5747 36.535 11.8203 36.5633 12.0622 36.5633C13.4733 36.5631 14.7536 35.6005 15.0981 34.168ZM49.9916 67.8219C51.6394 67.3088 52.5594 65.5569 52.0461 63.9091C51.533 62.2614 49.7817 61.3411 48.1333 61.8544C45.3878 62.7094 42.855 63.125 40.3906 63.125C37.7988 63.125 35.0531 62.6523 32.2298 61.72C30.5908 61.1791 28.8236 62.0688 28.2827 63.7077C27.7414 65.3466 28.6312 67.1137 30.2703 67.655C33.7269 68.7962 37.1319 69.375 40.3906 69.375C43.4947 69.375 46.6353 68.867 49.9916 67.8219Z" fill="url(#paint0_linear_711_5858)"/>
</g>
<defs>
<linearGradient id="paint0_linear_711_5858" x1="40" y1="0" x2="40" y2="80" gradientUnits="userSpaceOnUse">
<stop offset="0.05" stop-color="#0E42E4"/>
<stop offset="0.96" stop-color="#66E6C1"/>
</linearGradient>
<clipPath id="clip0_711_5858">
<rect width="80" height="80" fill="white"/>
</clipPath>
</defs>
</svg>
