<svg width="80" height="80" viewBox="0 0 80 80" fill="none" xmlns="http://www.w3.org/2000/svg">
<g clip-path="url(#clip0_711_5795)">
<path d="M75.812 5.35806C74.861 5.26157 73.9031 5.45788 73.0667 5.92072C72.6583 4.59594 71.676 3.52492 70.3914 3.00383C69.1067 2.48274 67.6559 2.56678 66.44 3.23272C65.7631 1.13654 63.7125 -0.200825 61.5213 0.0247227C60.0955 0.186807 58.8256 1.00152 58.084 2.23006C56.9755 1.40946 55.5561 1.13243 54.2203 1.476C52.8846 1.81957 51.775 2.7471 51.2 4.00072H38.0693C37.8261 3.99892 37.5878 3.93118 37.38 3.80472L31.9893 0.579389C31.3696 0.204852 30.6601 0.00490381 29.936 0.000722674H10.1907C7.75076 -0.0319638 5.67305 1.76776 5.35734 4.18739C5.26101 5.13887 5.4573 6.0971 5.92001 6.93406C4.59484 7.34189 3.52347 8.32426 3.00252 9.60918C2.48157 10.8941 2.56634 12.3452 3.23334 13.5607C1.13392 14.2352 -0.205341 16.2889 0.0240111 18.4821C0.185505 19.9081 1.00037 21.1782 2.22934 21.9194C1.55273 22.8526 1.24241 24.0018 1.35734 25.1487C1.54784 26.7429 2.5467 28.1263 4.00001 28.8087V41.9341C3.99768 42.1762 3.92946 42.4131 3.80268 42.6194L0.549344 48.0381C0.195279 48.6557 0.00610353 49.3541 1.10988e-05 50.0661V69.8114C-0.0307024 72.2508 1.76897 74.3272 4.18801 74.6434C5.13894 74.7373 6.09601 74.5411 6.93334 74.0807C7.34151 75.406 8.32414 76.4773 9.60925 76.9983C10.8944 77.5192 12.3456 77.4344 13.5613 76.7674C14.1791 78.6966 15.9743 80.0043 18 80.0007C19.6074 80.0011 21.096 79.1544 21.9173 77.7727C23.0269 78.5933 24.4472 78.8701 25.7837 78.5264C27.1203 78.1826 28.2307 77.2548 28.8067 76.0007H41.9307C42.174 76.0025 42.4122 76.0703 42.62 76.1967L48.0107 79.4247C48.6308 79.7979 49.3403 79.9964 50.064 79.9994H69.8093C72.2493 80.0321 74.327 78.2324 74.6427 75.8127C74.7387 74.8617 74.5425 73.904 74.08 73.0674C75.4052 72.6596 76.4766 71.6772 76.9975 70.3923C77.5185 69.1074 77.4337 67.6563 76.7667 66.4407C78.865 65.7664 80.204 63.7143 79.976 61.5221C79.8145 60.096 78.9996 58.8259 77.7707 58.0847C78.4473 57.1515 78.7576 56.0023 78.6427 54.8554C78.4507 53.2631 77.452 51.882 76 51.2007V38.0674C76.0028 37.8247 76.0705 37.5872 76.196 37.3794L79.4253 31.9901C79.7985 31.3694 79.997 30.6595 80 29.9354V10.1901C80.0307 7.75064 78.2311 5.67422 75.812 5.35806ZM2.67734 18.2181C2.61557 17.653 2.7972 17.0883 3.17682 16.6651C3.55645 16.242 4.09821 16.0004 4.66668 16.0007H13.3333C14.0697 16.0007 14.6667 15.4038 14.6667 14.6674C14.6667 13.931 14.0697 13.3341 13.3333 13.3341H7.33334C6.76495 13.3354 6.22283 13.0948 5.84246 12.6725C5.46208 12.2501 5.27938 11.6859 5.34001 11.1207C5.51063 10.0581 6.44865 9.29074 7.52401 9.33406H16C16.7364 9.33406 17.3333 8.7371 17.3333 8.00072C17.3333 7.26434 16.7364 6.66739 16 6.66739H10C9.43162 6.66874 8.8895 6.42818 8.50912 6.00582C8.12875 5.58346 7.94605 5.01921 8.00668 4.45406C8.17675 3.39111 9.11511 2.62346 10.1907 2.66739H29.936C30.179 2.66923 30.417 2.73747 30.624 2.86472L36.016 6.09406C36.6365 6.46611 37.3458 6.66416 38.0693 6.66739H50.6667V18.5194L48.3573 16.6287C46.6244 15.306 44.1869 15.44 42.6093 16.9447C41.438 18.0807 41.0309 19.7924 41.5653 21.3341H37.0947C36.0453 21.3385 35.0397 21.7551 34.2947 22.4941L21.7467 34.9394L21.72 34.9661L21.1653 35.5154C20.515 36.1513 19.4736 36.1441 18.832 35.4994C18.2464 34.9115 18.1893 33.9798 18.6987 33.3247L22.3653 28.8447C22.6914 28.446 22.7586 27.8951 22.538 27.4297C22.3174 26.9642 21.8484 26.6675 21.3333 26.6674H6.19068C5.11704 26.7093 4.18118 25.9429 4.01068 24.8821C3.94972 24.3174 4.13171 23.7534 4.51124 23.3309C4.89078 22.9084 5.43206 22.6671 6.00001 22.6674H13.3333C14.0697 22.6674 14.6667 22.0704 14.6667 21.3341C14.6667 20.5977 14.0697 20.0007 13.3333 20.0007H4.85734C3.78478 20.0422 2.8496 19.2775 2.67734 18.2181ZM56 43.5434L43.8267 55.6154C43.5818 55.8601 43.2502 55.9981 42.904 55.9994H36.456L24.3853 43.8314C24.1399 43.5863 24.0014 43.2542 24 42.9074V36.4541L36.1693 24.3861C36.4146 24.1402 36.7474 24.0016 37.0947 24.0007H43.548L55.6187 36.1687C55.8622 36.4152 55.9991 36.7475 56 37.0941V43.5434ZM24.8693 75.9901C24.308 76.0507 23.7475 75.8682 23.3293 75.4887C22.9093 75.1078 22.6688 74.5678 22.6667 74.0007V73.9807V66.6674C22.6667 65.931 22.0697 65.3341 21.3333 65.3341C20.597 65.3341 20 65.931 20 66.6674V74.0007V74.0194V75.1461C20.0366 76.2235 19.2637 77.1589 18.1987 77.3261C17.6385 77.3871 17.079 77.2045 16.6627 76.8247C16.2416 76.4434 16.001 75.9021 16 75.3341V72.6674V72.6407V66.6674C16 65.931 15.4031 65.3341 14.6667 65.3341C13.9303 65.3341 13.3333 65.931 13.3333 66.6674V72.6674V72.6834C13.3298 73.2488 13.0871 73.7862 12.6653 74.1628C12.2436 74.5393 11.6822 74.7197 11.12 74.6594C10.0576 74.4894 9.29011 73.5518 9.33334 72.4767V70.0007V69.9807V64.0007C9.33334 63.2644 8.73639 62.6674 8.00001 62.6674C7.26363 62.6674 6.66668 63.2644 6.66668 64.0007V70.0007V70.0127C6.66421 70.5785 6.42219 71.1168 6.0006 71.4942C5.57901 71.8716 5.01731 72.0527 4.45468 71.9927C3.39257 71.8228 2.62483 70.8862 2.66668 69.8114V50.0661C2.66873 49.8259 2.73157 49.5901 2.84934 49.3807L6.09334 43.9861C6.46462 43.3657 6.66262 42.657 6.66668 41.9341V29.3341H18.5173L16.6253 31.6447C15.4056 33.1284 15.3188 35.2414 16.4129 36.82C17.5069 38.3987 19.5159 39.0593 21.3333 38.4381V42.9074C21.3378 43.9568 21.7544 44.9623 22.4933 45.7074L34.928 58.2407C34.9427 58.2567 34.9573 58.2714 34.9733 58.2861L35.516 58.8327C35.9832 59.3083 36.1191 60.0179 35.8606 60.6324C35.6022 61.2469 35 61.646 34.3333 61.6447C33.9705 61.6463 33.6179 61.5246 33.3333 61.2994L28.8547 57.6341C28.456 57.3011 27.9003 57.23 27.4306 57.4518C26.9609 57.6736 26.6628 58.148 26.6667 58.6674V73.8101C26.7036 74.8862 25.9328 75.8211 24.8693 75.9901ZM77.3227 61.7834C77.3845 62.3485 77.2028 62.9132 76.8232 63.3363C76.4436 63.7595 75.9018 64.0011 75.3333 64.0007H66.6667C65.9303 64.0007 65.3333 64.5977 65.3333 65.3341C65.3333 66.0704 65.9303 66.6674 66.6667 66.6674H72.6667C73.2351 66.666 73.7772 66.9066 74.1576 67.329C74.5379 67.7513 74.7206 68.3156 74.66 68.8807C74.4894 69.9434 73.5514 70.7107 72.476 70.6674H64C63.2636 70.6674 62.6667 71.2644 62.6667 72.0007C62.6667 72.7371 63.2636 73.3341 64 73.3341H70C70.5684 73.3327 71.1105 73.5733 71.4909 73.9956C71.8713 74.418 72.054 74.9822 71.9933 75.5474C71.8233 76.6103 70.8849 77.378 69.8093 77.3341H50.064C49.821 77.3322 49.5831 77.264 49.376 77.1367L43.984 73.9074C43.3635 73.5353 42.6542 73.3373 41.9307 73.3341H29.3333V61.4794L31.6427 63.3701C33.374 64.6979 35.8153 64.5637 37.3907 63.0541C38.5624 61.9195 38.971 60.2091 38.4387 58.6674H42.9053C43.9547 58.663 44.9603 58.2464 45.7053 57.5074L58.2493 45.0674L58.296 45.0221L58.8387 44.4887C59.4891 43.8529 60.5304 43.86 61.172 44.5047C61.7576 45.0927 61.8148 46.0243 61.3053 46.6794L57.6387 51.1594C57.3148 51.5576 57.2482 52.1065 57.4676 52.5706C57.687 53.0347 58.1533 53.3316 58.6667 53.3341H73.8093C74.883 53.2921 75.8188 54.0586 75.9893 55.1194C76.0503 55.6841 75.8683 56.248 75.4888 56.6706C75.1092 57.0931 74.568 57.3343 74 57.3341H66.6667C65.9303 57.3341 65.3333 57.931 65.3333 58.6674C65.3333 59.4038 65.9303 60.0007 66.6667 60.0007H75.1467C76.2178 59.9613 77.1506 60.7255 77.3227 61.7834ZM77.3333 29.9354C77.3313 30.1782 77.2636 30.4159 77.1373 30.6234L73.9067 36.0154C73.5348 36.6355 73.3367 37.3443 73.3333 38.0674V50.6674H61.4787L63.3707 48.3567C64.744 46.6402 64.6068 44.1655 63.052 42.6114C61.8873 41.4938 60.2031 41.1056 58.6667 41.6007V37.0941C58.6623 36.0447 58.2457 35.0391 57.5067 34.2941L45.0667 21.7421L45.0413 21.7167L44.4907 21.1621C44.1783 20.8535 44.0038 20.4318 44.0068 19.9927C44.0098 19.5536 44.1901 19.1343 44.5067 18.8301C45.1027 18.2615 46.0217 18.2051 46.6827 18.6967L51.1613 22.3621C51.5596 22.6843 52.1074 22.7499 52.5704 22.5307C53.0335 22.3115 53.3301 21.8464 53.3333 21.3341V6.19139C53.2921 5.11752 54.059 4.18184 55.12 4.01139C55.6845 3.95084 56.2481 4.13301 56.6703 4.5125C57.0925 4.89199 57.3336 5.43303 57.3333 6.00072V13.3341C57.3333 14.0704 57.9303 14.6674 58.6667 14.6674C59.4031 14.6674 60 14.0704 60 13.3341V4.85806C59.9582 3.78399 60.7253 2.84795 61.7867 2.67806C62.3511 2.6175 62.9147 2.79968 63.337 3.17917C63.7592 3.55865 64.0002 4.09969 64 4.66739V13.3341C64 14.0704 64.597 14.6674 65.3333 14.6674C66.0697 14.6674 66.6667 14.0704 66.6667 13.3341V7.33406C66.6657 6.7659 66.9064 6.22414 67.3288 5.84406C67.7511 5.46398 68.3151 5.28145 68.88 5.34206C69.9424 5.51207 70.7099 6.44966 70.6667 7.52472V16.0007C70.6667 16.7371 71.2636 17.3341 72 17.3341C72.7364 17.3341 73.3333 16.7371 73.3333 16.0007V10.0007C73.3324 9.43256 73.5731 8.8908 73.9954 8.51073C74.4177 8.13064 74.9818 7.94812 75.5467 8.00872C76.6083 8.17923 77.3753 9.11569 77.3333 10.1901V29.9354Z" fill="url(#paint0_linear_711_5795)"/>
</g>
<defs>
<linearGradient id="paint0_linear_711_5795" x1="39.9999" y1="0" x2="39.9999" y2="80.0007" gradientUnits="userSpaceOnUse">
<stop offset="0.05" stop-color="#0E42E4"/>
<stop offset="0.96" stop-color="#66E6C1"/>
</linearGradient>
<clipPath id="clip0_711_5795">
<rect width="80" height="80" fill="white"/>
</clipPath>
</defs>
</svg>
